<svg width="595" height="308" viewBox="0 0 595 308" fill="none" xmlns="http://www.w3.org/2000/svg">
<g opacity="0.8" clip-path="url(#clip0_1220_76360)">
<g opacity="0.6">
<path opacity="0.05" d="M958.959 238.134L959.074 238.705C970.198 294.771 961.97 355.423 935.294 414.095C911.12 467.238 877.917 510.159 836.595 541.647C801.033 568.751 758.285 588.256 709.507 599.611C620.03 620.441 524.114 610.977 454.072 604.048C439.048 602.561 424.851 601.157 412.049 600.18C361.185 593.911 308.651 581.089 255.996 562.061C207.543 544.566 160.874 522.479 116.624 496.103C31.6175 445.089 -28.4774 385.305 -44.0856 336.177C-53.0814 307.898 -47.5552 284.362 -27.6236 266.228C11.0718 231.02 60.0255 234.893 122.086 239.78C216.184 247.192 345.046 257.346 517.592 133.605C552.754 108.389 588.625 88.9398 624.207 75.8113C657.629 63.4781 690.881 56.655 723.047 55.5419C783.297 53.4533 838.03 71.1488 881.32 106.711C901.205 123.061 918.066 142.775 931.133 164.955C944.46 187.609 953.867 212.349 958.959 238.134ZM412.098 599.543C424.909 600.527 439.075 601.938 454.136 603.409C595.29 617.356 831.541 640.692 934.75 413.827C987.519 297.78 966.391 177.433 880.924 107.217C807.603 46.9817 673.743 22.4158 517.973 134.139C441.373 189.068 367.12 222.578 291.058 236.562C225.603 248.593 170.56 244.264 122.048 240.43C60.1572 235.549 11.2653 231.704 -27.1801 266.717C-46.8633 284.649 -52.3527 307.969 -43.4404 335.991C-27.9018 384.972 32.0787 444.627 116.926 495.569C206.992 549.622 314.574 587.552 412.082 599.547L412.098 599.543Z" fill="#007DC5"/>
<path opacity="0.1" d="M941.036 243.163L941.149 243.726C951.858 297.724 943.943 356.137 918.244 412.638C894.969 463.818 862.957 505.159 823.2 535.481C788.955 561.582 747.774 580.339 700.82 591.295C614.64 611.358 522.276 602.265 454.826 595.57C440.359 594.14 426.695 592.79 414.365 591.846C365.387 585.809 314.827 573.458 264.074 555.148C217.424 538.295 172.49 517.027 129.882 491.634C48.0155 442.502 -9.83744 384.925 -24.8868 337.62C-33.5762 310.348 -28.2236 287.706 -9.04797 270.205C28.1911 236.301 75.3862 240.014 135.178 244.722C225.777 251.858 349.849 261.632 515.972 142.49C549.837 118.209 584.414 99.4768 618.648 86.828C650.829 74.9527 682.855 68.3839 713.833 67.3088C771.864 65.2884 824.574 82.3465 866.268 116.6C904.935 148.41 930.793 192.163 941.036 243.163ZM414.431 591.134C426.761 592.078 440.433 593.427 454.9 594.857C590.81 608.284 818.264 630.753 917.584 412.312C968.389 300.594 948.05 184.738 865.776 117.148C795.185 59.1511 666.312 35.5105 516.353 143.064C442.589 195.962 371.114 228.231 297.838 241.696C234.798 253.281 181.826 249.107 135.086 245.423C75.5288 240.724 28.4402 237.022 -8.57514 270.72C-27.5348 288.017 -32.7826 310.421 -24.2 337.402C-9.20631 384.549 48.5369 441.979 130.255 491.053C216.986 543.095 320.553 579.582 414.437 591.165L414.431 591.134Z" fill="#007DC5"/>
<path opacity="0.14" d="M923.116 248.207L923.223 248.74C933.526 300.675 925.907 356.845 901.196 411.188C878.818 460.398 848.068 500.144 809.796 529.309C776.864 554.391 737.273 572.468 692.109 582.984C609.266 602.273 520.428 593.507 455.588 587.131C441.663 585.761 428.553 584.451 416.68 583.544C369.589 577.747 320.963 565.834 272.185 548.243C227.32 532.043 184.108 511.587 143.139 487.157C64.4275 439.944 8.78556 384.541 -5.68337 339.047C-14.0183 312.819 -8.91061 290.997 9.54768 274.162C45.3737 241.578 90.7685 245.163 148.234 249.679C235.332 256.539 354.638 265.93 514.317 151.398C577.293 106.238 643.082 81.2379 704.545 79.1144C760.363 77.1854 811.028 93.5782 851.15 126.517C888.394 157.08 913.264 199.152 923.116 248.207ZM416.748 582.72C428.613 583.628 441.752 584.924 455.671 586.303C586.323 599.213 804.993 620.804 900.47 410.852C949.311 303.471 929.76 192.097 850.709 127.12C782.858 71.3745 658.986 48.6484 514.821 152.027C443.858 202.918 375.111 233.94 304.646 246.889C244.039 258.034 193.101 254.036 148.153 250.474C90.8726 245.921 45.643 242.399 10.1132 274.779C-8.09208 291.355 -13.1367 312.891 -4.90237 338.817C9.50773 384.099 65.0198 439.335 143.581 486.442C226.912 536.508 326.503 571.586 416.748 582.72Z" fill="#007DC5"/>
<path opacity="0.19" d="M905.195 253.244L905.299 253.761C915.186 303.628 907.88 357.559 884.16 409.76C862.673 457.008 833.145 495.168 796.406 523.166C764.78 547.239 726.767 564.573 683.413 574.67C603.839 593.198 518.643 584.776 456.382 578.613C443.027 577.281 430.422 576.047 419.039 575.178C332.282 564.5 236.567 530.731 156.451 482.677C80.875 437.323 27.4595 384.13 13.568 340.471C5.54413 315.273 10.4781 294.305 28.216 278.161C62.6165 246.834 106.199 250.269 161.376 254.627C244.976 261.218 359.463 270.244 512.749 160.304C573.212 116.942 636.371 92.9194 695.421 90.8951C749.005 89.0374 797.677 104.779 836.178 136.405C871.854 165.757 895.736 206.149 905.195 253.244ZM419.074 574.311C430.489 575.182 443.082 576.435 456.434 577.751C581.833 590.134 791.715 610.865 883.358 409.367C930.224 306.301 911.464 199.425 835.566 137.074C770.446 83.5748 651.56 61.7662 513.202 161C445.126 209.833 379.133 239.612 311.488 252.05C253.295 262.742 204.394 258.89 161.229 255.492C106.266 251.163 62.8473 247.744 28.7245 278.813C11.2658 294.709 6.43041 315.408 14.3273 340.214C28.1524 383.702 81.4287 436.682 156.808 481.938C236.86 529.95 332.443 563.625 419.074 574.311Z" fill="#007DC5"/>
<path opacity="0.24" d="M887.275 258.288L887.374 258.782C896.852 306.572 889.844 358.267 867.104 408.272C846.492 453.562 818.211 490.131 782.998 516.971C752.692 540.064 716.262 556.687 674.725 566.354C598.474 584.078 516.775 576.038 457.092 570.152C444.296 568.884 432.205 567.692 421.301 566.854C338.153 556.592 246.433 524.285 169.648 478.227C97.2206 434.755 46.0301 383.805 32.7066 341.935C25.0217 317.784 29.7464 297.654 46.7561 282.161C79.7466 252.13 121.518 255.423 174.407 259.582C254.499 265.897 364.197 274.544 511.069 169.209C569.013 127.654 629.549 104.647 686.148 102.73C737.507 100.95 784.168 116.035 821.074 146.352C855.351 174.419 878.208 213.146 887.275 258.288ZM421.406 565.894C432.318 566.737 444.401 567.932 457.198 569.2C577.315 581.069 778.438 600.926 866.237 407.876C911.132 309.148 893.168 206.753 820.461 147.021C758.075 95.775 644.182 74.8826 511.627 169.948C364.476 275.492 254.58 266.86 174.326 260.497C121.671 256.347 80.0808 253.074 47.4035 282.826C30.6931 298.05 26.0545 317.81 33.6202 341.607C46.8695 383.267 97.9472 434.015 170.145 477.381C246.809 523.399 338.391 555.661 421.406 565.894Z" fill="#007DC5"/>
<path opacity="0.29" d="M869.354 263.325L869.45 263.804C878.52 309.523 871.816 358.973 850.062 406.813C830.351 450.115 803.29 485.122 769.601 510.797C740.606 532.896 705.727 548.806 665.999 558.046C593.068 575.031 514.925 567.304 457.858 561.656C445.619 560.445 434.061 559.305 423.631 558.502C344.107 548.7 256.378 517.791 182.937 473.711C113.629 432.142 64.6871 383.39 51.9038 343.33C44.5424 320.191 49.0733 300.934 65.3641 286.1C96.9353 257.357 136.892 260.492 187.494 264.493C264.091 270.522 368.993 278.792 509.451 178.061C564.898 138.308 622.786 116.307 676.921 114.435C726.063 112.731 770.698 127.163 806.007 156.171C838.779 183.095 860.679 220.136 869.354 263.325ZM423.724 557.487C434.162 558.289 445.722 559.436 457.96 560.64C572.866 571.991 765.153 590.988 849.117 406.384C871.405 357.45 877.443 307.556 868.48 262.931C860.148 221.447 838.817 184.484 805.326 156.974C745.701 107.968 636.781 88.0035 510.03 178.908C369.271 279.86 264.143 271.58 187.388 265.526C137.043 261.562 97.2712 258.43 66.041 286.871C50.0756 301.407 45.634 320.309 52.87 343.024C65.5434 382.857 114.345 431.388 183.421 472.843C256.766 516.846 344.339 547.698 423.724 557.487Z" fill="#007DC5"/>
<path opacity="0.33" d="M851.426 268.371L851.518 268.826C860.18 312.476 853.781 359.689 833.012 405.355C814.205 446.718 788.362 480.115 756.199 504.633C728.526 525.76 695.242 540.9 657.29 549.703C587.679 565.948 513.087 558.592 458.617 553.201C446.943 552.045 435.909 550.953 425.96 550.189C350.032 540.822 266.272 511.324 196.172 469.247C130.025 429.539 83.3024 383.007 71.1073 344.756C64.0663 322.653 68.3987 304.247 83.9707 290.071C114.115 262.618 152.272 265.625 200.577 269.429C273.676 275.189 373.785 283.065 507.792 186.953C560.707 149.026 615.99 128.006 667.675 126.208C714.586 124.591 757.203 138.369 790.917 166.067C822.238 191.765 843.144 227.134 851.426 268.371ZM426.05 549.079C436.007 549.842 447.041 550.933 458.723 552.088C568.371 562.921 751.883 581.047 831.98 404.856C872.953 314.784 856.552 221.374 790.229 166.88C733.314 120.131 629.411 101.078 508.457 187.823C374.106 284.221 273.765 276.312 200.487 270.499C152.442 266.715 114.506 263.728 84.7062 290.854C69.4891 304.718 65.2706 322.732 72.1722 344.382C84.2606 382.381 130.857 428.689 196.744 468.257C266.714 510.288 350.295 539.733 426.057 549.078L426.05 549.079Z" fill="#007DC5"/>
<path opacity="0.38" d="M833.486 273.436L833.573 273.868C841.83 315.455 835.703 360.429 815.944 403.926C798.033 443.318 773.415 475.136 742.784 498.487C716.413 518.582 684.688 533.047 648.574 541.449C582.269 556.886 511.232 549.876 459.361 544.75C448.236 543.652 437.734 542.614 428.273 541.88C355.948 532.937 276.164 504.849 209.428 464.77C146.432 426.958 101.895 382.629 90.303 346.184C83.6009 325.088 87.7241 307.559 102.569 294.043C131.302 267.878 167.648 270.743 213.668 274.363C283.267 279.847 378.582 287.36 506.22 195.836C556.611 159.692 609.27 139.681 658.496 137.952C703.189 136.403 743.789 149.534 775.905 175.915C805.704 200.433 825.593 234.136 833.486 273.436ZM428.383 540.67C437.868 541.398 448.378 542.435 459.471 543.539C563.889 553.841 738.613 571.107 814.876 403.41C853.866 317.695 838.271 228.739 775.132 176.865C720.953 132.345 622.039 114.225 506.897 196.808C378.925 288.584 283.356 281.05 213.586 275.552C167.897 271.946 131.742 269.107 103.388 294.923C88.9241 308.097 84.9117 325.219 91.459 345.824C102.948 382 147.283 426.081 210.042 463.747C276.663 503.737 356.243 531.77 428.383 540.67Z" fill="#007DC5"/>
<path opacity="0.43" d="M815.585 278.452L815.667 278.861C823.506 318.373 817.733 361.108 798.92 402.439C726.144 562.514 559.608 546.037 460.133 536.244C449.574 535.201 439.597 534.218 430.593 533.521C361.879 525.049 286.103 498.364 222.685 460.292C162.845 424.368 120.518 382.245 109.506 347.61C103.119 327.56 107.049 310.872 121.174 298.007C148.489 273.138 183.024 275.861 226.753 279.306C292.834 284.502 383.393 291.645 504.577 204.725C552.464 170.385 602.498 151.375 649.303 149.747C691.779 148.273 730.355 160.767 760.873 185.823C789.163 209.103 808.087 241.121 815.585 278.452ZM430.708 532.254C439.681 532.957 449.697 533.932 460.264 534.973C559.386 544.773 725.334 561.16 797.763 401.917C834.789 320.498 819.975 236.067 760.028 186.812C708.585 144.561 614.661 127.342 505.291 205.762C383.753 292.954 292.949 285.795 226.654 280.571C183.235 277.151 148.938 274.453 122.03 298.951C108.305 311.447 104.517 327.688 110.715 347.231C121.627 381.573 163.757 423.43 223.341 459.205C286.619 497.177 362.199 523.805 430.708 532.254Z" fill="#007DC5"/>
<path opacity="0.48" d="M797.665 283.497L797.743 283.883C805.174 321.324 799.682 361.819 781.872 400.99C712.924 552.66 555.151 537.08 460.897 527.772C450.886 526.78 441.434 525.852 432.911 525.195C367.867 517.166 296.066 491.883 235.975 455.824C179.268 421.784 139.175 381.87 128.736 349.047C122.68 330.006 126.407 314.186 139.806 301.981C165.646 278.404 198.4 280.978 239.843 284.273C302.449 289.202 388.178 295.959 502.963 213.641C548.361 181.061 595.731 163.06 640.051 161.529C680.294 160.135 716.819 171.965 745.777 195.696C772.629 217.771 790.559 248.118 797.665 283.497ZM433.034 523.846C441.572 524.54 451.017 525.437 461.027 526.421C554.915 535.666 712.065 551.219 780.638 400.402C815.691 323.315 801.674 243.372 744.912 196.745C696.21 156.745 607.278 140.435 503.741 214.673C388.556 297.28 302.534 290.502 239.731 285.556C198.613 282.317 166.142 279.757 140.682 302.945C127.715 314.823 124.115 330.159 129.971 348.639C150.665 413.615 290.449 506.251 433.034 523.846Z" fill="#007DC5"/>
<path opacity="0.52" d="M779.744 288.533L779.818 288.904C786.842 324.275 781.654 362.525 764.825 399.508C699.701 542.79 550.671 528.088 461.651 519.294C452.207 518.365 443.278 517.485 435.228 516.861C373.743 509.282 305.975 485.372 249.205 451.337C195.632 419.188 157.765 381.485 147.893 350.443C142.172 332.434 145.693 317.459 158.373 305.919C182.85 283.628 213.801 286.059 252.962 289.145C312.06 293.8 393 300.178 501.323 222.465C599.721 151.901 684.337 167.472 730.715 205.57C756.088 226.441 773.032 255.115 779.744 288.533ZM435.35 515.432C443.416 516.052 452.344 516.932 461.79 517.869C550.434 526.626 698.787 541.28 763.522 398.934C796.608 326.168 783.381 250.716 729.812 206.715C683.839 168.946 599.895 153.568 502.166 223.661C393.389 301.714 312.134 295.286 252.813 290.605C214.011 287.542 183.361 285.131 159.339 306.97C147.123 318.103 143.729 332.587 149.258 350C168.779 411.374 300.745 498.828 435.35 515.432Z" fill="#007DC5"/>
<path opacity="0.57" d="M761.824 293.578L761.894 293.925C768.502 327.228 763.619 363.241 747.78 398.073C686.444 532.951 546.199 519.094 462.401 510.793C453.514 509.921 445.116 509.086 437.541 508.512C379.703 501.38 315.901 478.906 262.492 446.853C212.067 416.586 176.418 381.086 167.14 351.885C161.724 334.915 165.061 320.787 177.023 309.906C200.104 288.898 229.19 291.198 266.05 294.104C321.649 298.482 397.799 304.481 499.748 231.373C592.391 164.935 672.032 179.603 715.706 215.474C739.546 235.111 755.502 262.104 761.824 293.578ZM437.684 507.022C445.268 507.602 453.665 508.437 462.554 509.317C545.945 517.547 685.51 531.34 746.401 397.443C777.524 329.013 765.085 258.044 714.708 216.662C671.444 181.151 592.525 166.683 500.592 232.616C398.195 306.056 321.741 300.021 265.898 295.628C229.406 292.753 200.582 290.48 178.005 311.033C166.519 321.49 163.341 335.088 168.551 351.473C186.894 409.14 311.039 491.397 437.684 507.022Z" fill="#007DC5"/>
<path opacity="0.62" d="M744.021 298.205C750.175 328.846 745.997 363.054 730.738 396.614C673.214 523.091 541.729 510.108 463.169 502.345C454.838 501.521 446.965 500.742 439.863 500.201C385.639 493.516 325.821 472.449 275.76 442.43C228.476 414.053 195.051 380.756 186.339 353.368C181.257 337.423 184.39 324.156 195.624 313.926C217.271 294.218 244.569 296.371 279.144 299.094C331.244 303.203 402.597 308.825 498.131 240.313C584.982 178.018 659.701 191.803 700.649 225.419C723.629 244.29 738.296 269.703 744.021 298.205ZM440.007 498.598C447.118 499.145 454.989 499.917 463.32 500.741C541.454 508.461 672.219 521.412 729.277 395.936C758.442 331.866 746.759 265.386 699.627 226.604C659.132 193.331 585.17 179.794 499.048 241.558C403.045 310.413 331.357 304.762 279.005 300.64C244.82 297.943 217.817 295.819 196.687 315.062C185.919 324.812 182.954 337.556 187.823 352.845C205.006 406.892 321.335 483.973 440.007 498.598Z" fill="#007DC5"/>
<path opacity="0.67" d="M726.098 303.275C731.844 331.885 727.941 363.822 713.688 395.157C659.994 513.237 537.257 501.114 463.923 493.867C456.149 493.1 448.809 492.374 442.187 491.865C330.89 478.136 221.728 405.637 205.528 354.725C200.84 340.017 203.859 327.263 214.224 317.826C234.452 299.407 259.947 301.416 292.221 303.959C340.821 307.791 407.385 313.034 496.497 249.128C577.586 190.969 647.34 203.817 685.606 235.234C707.049 252.927 720.752 276.655 726.098 303.275ZM442.334 490.198C448.965 490.713 456.307 491.406 464.087 492.204C536.993 499.401 658.961 511.453 712.168 394.467C739.345 334.69 728.486 272.709 684.468 236.562C646.707 205.542 577.744 192.912 497.412 250.526C407.83 314.767 340.918 309.514 292.057 305.662C260.183 303.151 235.006 301.167 215.313 319.093C205.329 328.188 202.574 340.014 207.118 354.245C223.122 404.666 331.63 476.542 442.334 490.198Z" fill="#007DC5"/>
<path opacity="0.71" d="M708.167 308.345C713.505 334.918 709.885 364.591 696.638 393.7C646.764 503.376 532.784 492.12 464.686 485.395C457.47 484.685 450.653 484.007 444.505 483.539C341.155 470.799 239.727 403.427 224.739 356.19C220.382 342.492 223.186 330.623 232.838 321.836C251.639 304.707 275.331 306.573 305.314 308.941C350.422 312.495 412.188 317.36 494.871 258.022C570.199 203.999 634.962 215.946 670.531 245.126C690.469 261.564 703.199 283.609 708.167 308.345ZM444.66 481.79C450.817 482.263 457.641 482.94 464.858 483.651C532.49 490.333 645.691 501.512 695.047 392.975C720.266 337.519 710.188 280.03 669.379 246.506C634.357 217.73 570.381 206.026 495.86 259.469C412.644 319.148 350.506 314.237 305.133 310.68C275.574 308.346 252.218 306.51 233.972 323.125C224.733 331.533 222.179 342.484 226.366 355.654C241.244 402.423 341.933 469.117 444.66 481.79Z" fill="#007DC5"/>
<path opacity="0.76" d="M690.251 313.445C695.18 337.988 691.851 365.386 679.587 392.275C633.527 493.557 528.303 483.16 465.431 476.951C458.772 476.298 452.481 475.674 446.813 475.239L446.774 475.247C351.346 463.412 257.766 401.257 243.893 357.61C239.864 344.946 242.455 333.939 251.395 325.801C268.784 309.959 290.665 311.683 318.363 313.868C359.971 317.145 416.941 321.633 493.216 266.93C562.774 217.044 622.627 228.091 655.428 255.041C673.492 269.852 685.81 290.512 690.251 313.445ZM446.976 473.416C452.689 473.874 458.951 474.471 465.612 475.133C527.993 481.296 632.405 491.607 677.922 391.541C701.177 340.421 691.888 287.415 654.27 256.51C621.98 229.987 562.991 219.201 494.282 268.482C417.464 323.519 360.079 319.002 318.217 315.696C290.96 313.55 269.428 311.845 252.63 327.15C244.139 334.886 241.753 344.952 245.637 357.059C259.359 400.19 352.228 461.686 446.986 473.382L446.976 473.416Z" fill="#007DC5"/>
<path opacity="0.81" d="M672.312 318.477C676.836 340.998 673.765 366.128 662.548 390.791C620.309 483.67 523.842 474.14 466.173 468.452C460.07 467.847 454.311 467.278 449.116 466.876C361.628 456.08 275.8 399.096 263.091 359.045C259.384 347.385 261.775 337.261 270 329.764C285.973 315.226 306.041 316.8 331.447 318.803C369.554 321.804 421.736 325.921 491.597 275.822C555.39 230.089 610.277 240.198 640.361 264.932C656.927 278.511 668.229 297.45 672.312 318.477ZM449.31 464.966C454.513 465.366 460.288 465.973 466.383 466.539C523.514 472.191 619.168 481.627 660.81 390.016C682.085 343.188 673.599 294.701 639.196 266.411C609.638 242.133 555.644 232.27 492.726 277.362C422.305 327.87 369.72 323.746 331.322 320.699C306.373 318.733 286.671 317.182 271.306 331.148C263.574 338.225 261.4 347.389 264.917 358.462C277.474 397.957 362.524 454.262 449.31 464.966Z" fill="#007DC5"/>
<path opacity="0.86" d="M654.382 323.548C658.496 344.031 655.702 366.898 645.506 389.332C607.071 473.812 519.37 465.147 466.989 459.962C461.443 459.414 456.212 458.915 451.449 458.546C371.924 448.737 293.903 396.881 282.328 360.481C278.931 349.842 281.118 340.586 288.641 333.744C303.187 320.497 321.453 321.935 344.566 323.756C379.165 326.442 426.564 330.21 490.004 284.717C548.024 243.107 597.97 252.321 625.319 274.834C640.388 287.189 650.668 304.419 654.382 323.548ZM451.636 456.558C456.367 456.924 461.608 457.437 467.177 457.981C519.033 463.11 605.862 471.71 643.686 388.509C663.002 346.041 655.3 302.014 624.058 276.348C597.24 254.323 548.238 245.368 491.129 286.322C427.102 332.246 379.286 328.481 344.376 325.729C321.729 323.951 303.861 322.537 289.951 335.231C282.952 341.599 281.016 349.873 284.193 359.89C295.595 395.714 372.826 446.83 451.636 456.558Z" fill="#007DC5"/>
<path opacity="0.9" d="M636.451 328.619C640.157 347.072 637.645 367.666 628.456 387.875C593.859 463.956 514.897 456.153 467.709 451.475C462.728 450.982 458.018 450.515 453.8 450.182C382.22 441.354 311.987 394.654 301.558 361.878C298.499 352.247 300.472 343.878 307.273 337.686C320.408 325.726 336.863 327.021 357.652 328.667C388.752 331.117 431.355 334.475 488.379 293.579C540.631 256.106 585.617 264.413 610.3 284.684C623.869 295.835 633.119 311.374 636.451 328.619ZM453.962 448.15C458.218 448.475 462.952 448.937 467.918 449.434C514.545 454.039 592.588 461.746 626.573 387.016C643.915 348.871 637.003 309.342 608.955 286.303C584.906 266.507 540.852 258.486 489.555 295.278C431.913 336.611 388.886 333.225 357.459 330.745C337.129 329.144 321.073 327.88 308.581 339.238C302.33 344.933 300.607 352.345 303.436 361.276C313.709 393.473 383.114 439.368 453.962 448.15Z" fill="#007DC5"/>
<path opacity="0.95" d="M618.528 333.688C621.827 350.112 619.583 368.444 611.406 386.417C580.629 454.095 510.395 447.165 468.476 443.019C464.02 442.581 459.867 442.17 456.098 441.875L456.052 441.885C392.408 434.032 329.965 392.497 320.687 363.335C317.96 354.713 319.717 347.23 325.812 341.678C337.529 331.015 352.173 332.169 370.708 333.625C398.317 335.804 436.123 338.785 486.724 302.486C533.212 269.142 573.247 276.541 595.249 294.58C607.327 304.507 615.56 318.339 618.528 333.688ZM456.286 439.734C460.063 440.027 464.224 440.436 468.689 440.88C510.058 444.968 579.28 451.813 609.453 385.525C624.831 351.716 618.699 316.672 593.842 296.252C572.495 278.715 533.489 271.599 487.98 304.225C436.755 341.011 398.477 337.963 370.543 335.761C352.522 334.347 338.285 333.223 327.255 343.267C321.757 348.274 320.239 354.786 322.732 362.643C331.824 391.24 393.416 431.975 456.286 439.734Z" fill="#007DC5"/>
<path d="M600.598 338.759C603.487 353.145 601.527 369.212 594.367 384.974C567.402 444.242 505.947 438.174 469.199 434.547C465.308 434.164 461.68 433.809 458.385 433.555L458.339 433.565C402.641 426.694 347.986 390.314 339.861 364.775C337.442 357.168 339.007 350.566 344.381 345.665C354.687 336.289 367.52 337.3 383.767 338.557C407.866 340.454 440.875 343.057 485.094 311.365C525.799 282.161 560.889 288.65 580.142 304.471C590.752 313.164 597.988 325.293 600.598 338.759ZM458.604 431.327C461.868 431.587 465.544 431.941 469.443 432.322C505.599 435.883 566.033 441.867 592.339 384.032C605.745 354.554 600.411 323.998 578.746 306.197C560.13 290.906 526.102 284.709 486.407 313.181C441.56 345.345 408.078 342.707 383.626 340.778C367.914 339.541 355.505 338.565 345.92 347.291C341.17 351.625 339.847 357.271 342.017 364.077C349.942 389.022 403.712 424.551 458.612 431.326L458.604 431.327Z" fill="#007DC5"/>
</g>
</g>
<defs>
<clipPath id="clip0_1220_76360">
<rect width="554.5" height="1040.43" fill="white" transform="translate(19.1901 748.522) rotate(-101.357)"/>
</clipPath>
</defs>
</svg>
