<svg width="580" height="259" viewBox="0 0 580 259" fill="none" xmlns="http://www.w3.org/2000/svg">
<g opacity="0.4" clip-path="url(#clip0_1220_76385)">
<path opacity="0.05" d="M41.3558 -77.3314L41.4115 -77.9113C47.0127 -134.795 72.4651 -190.46 115 -238.883C153.537 -282.741 197.754 -314.197 246.427 -332.359C288.318 -347.993 334.885 -354.274 384.859 -351.005C476.534 -345.01 565.591 -308.156 630.619 -281.226C644.568 -275.449 657.748 -269.991 669.718 -265.345C716.583 -244.606 763.146 -217.11 808.028 -183.638C849.33 -152.852 887.596 -118.188 922.303 -80.1209C988.878 -6.66028 1029.07 67.9738 1029.77 119.516C1030.18 149.189 1018.07 170.113 993.743 181.693C946.505 204.176 900.774 186.282 842.794 163.62C754.881 129.256 634.492 82.1938 433.49 150.62C392.529 164.564 352.561 172.783 314.701 175.037C279.139 177.155 245.337 174.049 214.228 165.792C155.959 150.331 108.703 117.533 77.5765 70.951C63.283 49.5401 52.8594 25.7861 46.7802 0.770606C40.5905 -24.7728 38.7566 -51.1777 41.3558 -77.3314ZM669.487 -264.751C657.51 -269.405 644.361 -274.86 630.372 -280.633C499.318 -334.889 279.968 -425.689 115.442 -238.469C31.3067 -142.695 16.6517 -21.3895 78.1023 70.5824C130.821 149.481 251.817 211.786 433.281 149.999C522.511 119.626 603.289 109.073 680.14 117.732C746.273 125.186 797.699 145.281 843.018 163.009C900.838 185.616 946.518 203.466 993.46 181.097C1017.5 169.638 1029.51 148.91 1029.1 119.507C1028.42 68.1251 988.303 -6.35181 921.859 -79.697C851.324 -157.532 759.35 -225.011 669.503 -264.749L669.487 -264.751Z" fill="#007DC5"/>
<path opacity="0.1" d="M59.9671 -76.9505L60.022 -77.5225C65.4213 -132.307 89.9253 -185.919 130.895 -232.548C168.004 -274.786 210.622 -305.076 257.461 -322.576C297.801 -337.632 342.65 -343.65 390.765 -340.528C479.06 -334.756 564.825 -299.285 627.44 -273.331C640.872 -267.769 653.558 -262.517 665.086 -258.04C710.213 -238.069 755.024 -211.595 798.293 -179.362C838.057 -149.714 874.899 -116.337 908.319 -79.6854C972.434 -8.93652 1011.12 62.9352 1011.81 112.571C1012.23 141.192 1000.54 161.311 977.117 172.504C931.651 194.16 887.557 176.93 831.695 155.096C747.052 122.011 631.137 76.6993 437.615 142.586C398.167 156.012 359.645 163.919 323.215 166.104C288.973 168.144 256.418 165.149 226.458 157.201C170.331 142.317 124.827 110.716 94.8483 65.8492C67.0596 24.1985 54.9909 -25.1705 59.9671 -76.9505ZM664.816 -257.378C653.289 -261.855 640.595 -267.108 627.163 -272.669C500.976 -324.907 289.795 -412.328 131.432 -232.045C50.4319 -139.844 36.3226 -23.0657 95.4782 65.4669C146.233 141.433 262.724 201.406 437.418 141.927C523.345 112.675 601.105 102.505 675.139 110.853C738.83 118.034 788.32 137.381 831.986 154.452C887.626 176.209 931.621 193.398 976.814 171.873C999.973 160.813 1011.49 140.891 1011.09 112.581C1010.41 63.1118 971.784 -8.58777 907.794 -79.2377C839.867 -154.181 751.318 -219.116 664.819 -257.409L664.816 -257.378Z" fill="#007DC5"/>
<path opacity="0.14" d="M78.5799 -76.5853L78.6319 -77.126C83.8222 -129.819 107.393 -181.37 146.792 -226.22C182.471 -266.832 223.42 -295.962 268.501 -312.784C307.289 -327.246 350.42 -333.073 396.693 -330.05C481.57 -324.502 564.055 -290.367 624.266 -265.474C637.196 -260.127 649.364 -255.075 660.464 -250.766C703.855 -231.57 746.941 -206.077 788.528 -175.105C826.773 -146.598 862.203 -114.497 894.334 -79.2421C955.985 -11.2449 993.183 57.9058 993.847 105.641C994.224 133.159 983.011 152.564 960.466 163.327C916.735 184.131 874.327 167.544 820.636 146.568C739.263 114.762 627.799 71.1985 441.781 134.54C368.42 159.511 298.209 164.373 238.768 148.593C184.787 134.264 141.047 103.891 112.192 60.7386C85.4036 20.6944 73.7935 -26.7799 78.5799 -76.5853ZM660.161 -249.996C649.068 -254.305 636.868 -259.352 623.947 -264.706C502.643 -314.925 299.614 -398.96 147.389 -225.688C69.5247 -137.069 55.9605 -24.8085 112.789 60.2897C161.573 133.306 273.543 190.955 441.481 133.792C524.147 105.651 598.934 95.8822 670.128 103.91C731.363 110.808 778.957 129.395 820.944 145.83C874.447 166.789 916.715 183.267 960.104 162.573C982.331 151.984 993.401 132.834 993.033 105.634C992.364 58.1197 955.242 -10.8339 893.703 -78.6859C828.458 -150.753 743.307 -213.188 660.161 -249.996Z" fill="#007DC5"/>
<path opacity="0.19" d="M97.1919 -76.2123L97.2423 -76.7373C102.231 -127.33 124.853 -176.829 162.683 -219.916C196.941 -258.909 236.26 -286.875 279.536 -303.024C316.781 -316.899 358.187 -322.473 402.606 -319.572C484.135 -314.244 563.234 -281.494 621.037 -257.552C633.433 -252.407 645.139 -247.573 655.782 -243.442C735.722 -208.08 817.543 -148.022 880.295 -78.812C939.484 -13.5029 975.192 52.8869 975.835 98.6984C976.212 125.141 965.413 143.779 943.758 154.09C901.755 174.103 861.039 158.185 809.492 138.023C731.39 107.488 624.431 65.6711 445.862 126.471C375.428 150.449 308.017 155.138 250.914 139.962C199.092 126.212 157.071 97.0407 129.387 55.6136C103.748 17.1825 92.5968 -28.3972 97.1919 -76.2123ZM655.498 -242.623C644.824 -246.765 633.135 -251.613 620.738 -256.743C504.308 -304.935 309.441 -385.6 163.336 -219.307C88.6131 -134.246 75.5953 -26.5198 130.167 55.1508C176.988 125.226 284.452 180.552 445.63 125.673C524.937 98.6643 596.728 89.2883 665.075 96.9875C723.869 103.618 769.556 121.477 809.884 137.239C861.233 157.31 901.798 173.166 943.46 153.318C964.776 143.164 975.403 124.754 975.034 98.7242C974.405 53.0959 938.768 -13.0498 879.739 -78.2091C817.036 -147.359 735.314 -207.289 655.498 -242.623Z" fill="#007DC5"/>
<path opacity="0.24" d="M115.804 -75.8471L115.853 -76.3486C120.631 -124.834 142.32 -172.28 178.576 -213.549C211.428 -250.922 249.093 -277.725 290.574 -293.209C326.271 -306.528 365.955 -311.88 408.511 -309.096C486.626 -303.961 562.489 -272.59 617.906 -249.66C629.786 -244.738 641.012 -240.093 651.205 -236.132C727.811 -202.213 806.232 -144.712 866.374 -78.3783C923.095 -15.7818 957.324 47.8166 957.942 91.7514C958.298 117.092 947.942 134.99 927.172 144.888C886.895 164.07 847.87 148.813 798.456 129.505C723.631 100.25 621.146 60.1834 450.051 118.435C382.551 141.415 317.945 145.89 263.219 131.323C213.549 118.143 173.262 90.1822 146.726 50.4708C122.053 13.6747 111.4 -30.0145 115.804 -75.8471ZM650.827 -235.243C640.627 -239.212 629.408 -243.857 617.528 -248.779C506.006 -294.95 319.268 -372.24 179.29 -212.918C107.711 -131.438 95.2299 -28.2312 147.506 50.008C192.364 117.135 295.314 170.137 449.731 117.566C621.154 59.1957 723.833 99.3047 798.799 128.652C847.991 147.884 886.848 163.069 926.746 144.064C947.151 134.337 957.317 116.769 956.972 91.8006C956.365 48.0882 922.186 -15.284 865.654 -77.7121C805.615 -143.973 727.313 -201.391 650.827 -235.243Z" fill="#007DC5"/>
<path opacity="0.29" d="M134.417 -75.474L134.463 -75.9598C139.032 -122.346 159.779 -167.731 194.464 -207.213C225.877 -242.945 261.922 -268.608 301.606 -283.418C335.761 -296.166 373.755 -301.285 414.455 -298.615C489.179 -293.735 561.729 -263.695 614.71 -241.75C626.073 -237.044 636.805 -232.604 646.555 -228.812C719.825 -196.385 794.832 -141.379 852.347 -77.9074C906.633 -18.0359 939.347 42.8071 939.973 84.8525C940.312 109.132 930.395 126.25 910.504 135.726C871.958 154.086 834.625 139.506 787.354 121.012C715.791 93.0435 617.788 54.7282 454.165 110.432C389.577 132.41 327.797 136.69 275.443 122.794C227.916 110.184 189.379 83.4353 163.991 45.4396C140.429 10.1737 130.202 -31.6239 134.417 -75.474ZM646.172 -227.869C636.414 -231.661 625.682 -236.109 614.319 -240.807C507.633 -284.971 329.103 -358.878 195.244 -206.529C159.731 -166.154 139.493 -120.151 135.139 -74.8431C131.091 -32.7248 140.795 8.83286 164.876 44.8683C207.74 109.051 306.2 159.724 453.856 109.453C617.831 53.6252 716.048 92.0164 787.755 120.054C834.79 138.438 871.948 152.962 910.08 134.792C929.573 125.506 939.302 108.703 938.959 84.8659C938.373 43.0694 905.73 -17.5217 851.632 -77.2169C794.187 -140.587 719.312 -195.494 646.172 -227.869Z" fill="#007DC5"/>
<path opacity="0.33" d="M153.037 -75.108L153.081 -75.5703C157.44 -119.857 177.247 -163.189 210.359 -200.878C240.346 -235.015 274.759 -259.489 312.647 -273.634C345.255 -285.835 381.498 -290.679 420.373 -288.106C491.705 -283.481 560.964 -254.824 611.533 -233.878C622.371 -229.389 632.616 -225.146 641.917 -221.532C711.871 -190.562 783.489 -138.056 838.386 -77.4697C890.188 -20.2965 921.42 37.7786 922.006 77.9223C922.34 101.118 912.859 117.478 893.847 126.533C857.041 144.072 821.393 130.136 776.263 112.497C707.97 85.7992 614.439 49.2501 458.329 102.402C396.694 123.367 337.691 127.463 287.704 114.205C242.337 102.159 205.542 76.6215 181.302 40.3416C158.773 6.66965 149.014 -33.2405 153.037 -75.108ZM641.509 -220.495C632.2 -224.111 621.955 -228.353 611.11 -232.844C509.307 -274.988 338.923 -345.519 211.202 -200.101C145.885 -125.768 134.511 -31.6131 182.196 39.7632C223.12 101 317.043 149.346 457.946 101.376C614.467 48.0508 708.21 84.6993 776.659 111.499C821.545 129.043 856.988 142.896 893.37 125.57C911.952 116.711 921.21 100.693 920.879 77.972C920.321 38.1 889.144 -19.7246 837.552 -76.6879C782.765 -137.193 711.304 -189.596 641.501 -220.496L641.509 -220.495Z" fill="#007DC5"/>
<path opacity="0.38" d="M171.675 -74.7562L171.717 -75.195C175.867 -117.39 194.764 -158.659 226.281 -194.563C254.838 -227.074 287.621 -250.392 323.705 -263.864C354.768 -275.454 389.323 -280.105 426.323 -277.68C494.255 -273.239 560.213 -245.944 608.373 -226.005C618.701 -221.73 628.452 -217.693 637.295 -214.25C703.924 -184.73 772.144 -134.726 824.401 -77.0264C873.737 -22.5814 903.516 32.7523 904.048 70.9928C904.349 93.1255 895.323 108.707 877.198 117.341C842.115 134.057 808.16 120.782 765.163 103.981C700.14 78.5619 611.093 43.7486 462.408 94.3555C403.706 114.345 347.507 118.236 299.893 105.626C256.669 94.1566 221.616 69.823 198.524 35.2666C177.109 3.16482 167.84 -34.8555 171.675 -74.7562ZM636.838 -213.123C627.972 -216.569 618.214 -220.607 607.916 -224.878C510.965 -264.999 348.742 -332.159 227.153 -193.759C164.996 -123.022 154.142 -33.3644 199.538 34.5812C238.49 92.892 327.909 138.9 462.042 93.229C611.12 42.478 700.403 77.3851 765.587 102.867C808.269 119.559 842.051 132.754 876.669 116.262C894.33 107.845 903.132 92.621 902.837 71.0029C902.325 33.0491 872.667 -21.9882 823.518 -76.2256C771.344 -133.806 703.303 -183.699 636.838 -213.123Z" fill="#007DC5"/>
<path opacity="0.43" d="M190.262 -74.3697L190.302 -74.785C194.249 -114.873 212.159 -154.101 242.143 -188.207C358.186 -320.322 512.801 -256.289 605.168 -218.088C614.972 -214.03 624.236 -210.198 632.652 -206.922C695.962 -178.9 760.753 -131.4 810.416 -76.5831C857.277 -24.8591 885.581 27.723 886.082 64.0625C886.385 85.1041 877.787 99.9363 860.54 108.156C827.19 124.042 794.926 111.428 754.072 95.4571C692.333 71.3347 607.73 38.2533 466.557 86.3239C410.774 105.313 357.378 109.007 312.109 97.0013C271.029 86.102 237.728 62.9649 215.782 30.1399C195.453 -0.33918 186.619 -36.4672 190.262 -74.3697ZM632.175 -205.742C623.79 -209.015 614.487 -212.851 604.675 -216.91C512.646 -255.015 358.568 -318.79 243.099 -187.371C184.067 -120.177 173.777 -35.0758 216.877 29.4385C253.868 84.785 338.772 128.484 466.174 85.1246C607.765 36.8965 692.598 70.0631 754.534 94.2757C795.098 110.131 827.142 122.653 859.994 107.005C876.752 99.0222 885.084 84.5756 884.816 64.0752C884.324 28.0451 856.132 -24.2257 809.473 -75.7327C759.915 -130.413 695.295 -177.802 632.175 -205.742Z" fill="#007DC5"/>
<path opacity="0.48" d="M208.874 -74.0045L208.912 -74.3963C212.65 -112.385 229.642 -149.55 258.04 -181.878C367.983 -307.059 514.47 -246.425 601.982 -210.201C611.276 -206.351 620.054 -202.723 628.02 -199.625C687.946 -173.091 749.339 -128.084 796.402 -76.1585C840.81 -27.1454 867.616 22.675 868.094 57.1143C868.373 77.0938 860.22 91.1542 843.86 98.9533C812.296 114.03 781.693 102.074 742.984 86.9102C684.492 64.0489 604.401 32.7377 470.685 78.2587C417.794 96.2839 367.24 99.7847 324.379 88.4058C285.458 78.0778 253.929 56.1706 233.091 25.0653C213.789 -3.84401 205.423 -38.0845 208.874 -74.0045ZM627.512 -198.369C619.542 -201.507 610.761 -205.103 601.466 -208.946C514.286 -245.004 368.388 -305.431 259.051 -180.959C203.161 -117.338 193.409 -36.7636 234.223 24.3121C269.243 76.7093 349.632 118.093 470.24 77.0455C604.422 31.3636 684.788 62.7804 743.463 85.7146C781.877 100.731 812.213 112.591 843.301 97.7766C859.153 90.1659 867.043 76.531 866.794 57.1475C865.818 -11.037 758.879 -140.208 627.512 -198.369Z" fill="#007DC5"/>
<path opacity="0.52" d="M227.486 -73.6314L227.523 -74.0076C231.051 -109.897 247.101 -145.001 273.925 -175.52C377.778 -293.781 516.152 -236.52 598.804 -202.306C607.573 -198.679 615.864 -195.249 623.388 -192.32C680.038 -167.247 737.968 -124.724 782.439 -75.6973C824.396 -29.403 849.711 17.6566 850.164 50.227C850.42 69.1209 842.711 82.4332 827.23 89.8028C797.344 104.044 768.425 92.7479 731.84 78.445C676.626 56.8635 601.008 27.3029 474.812 70.2884C360.188 109.309 283.715 69.8833 250.369 19.98C232.133 -7.34804 224.226 -39.7017 227.486 -73.6314ZM622.856 -190.987C615.317 -193.918 607.026 -197.348 598.257 -200.982C515.955 -235.053 378.215 -292.07 275.007 -174.593C222.252 -114.538 213.046 -38.4906 251.564 19.1458C284.619 68.6179 360.504 107.663 474.353 68.8997C601.081 25.7203 676.986 55.4192 732.405 77.0916C768.655 91.2673 797.291 102.458 826.61 88.5174C841.529 81.4022 848.975 68.5234 848.73 50.2553C847.832 -14.1415 746.874 -136.087 622.856 -190.987Z" fill="#007DC5"/>
<path opacity="0.57" d="M246.099 -73.2662L246.133 -73.6188C249.459 -107.408 264.569 -140.46 289.823 -169.207C387.615 -280.522 517.826 -226.616 595.623 -194.387C603.875 -190.976 611.671 -187.744 618.754 -184.999C672.043 -161.412 726.594 -121.412 768.422 -75.257C807.912 -31.6752 831.744 12.6321 832.161 43.2695C832.426 61.0808 825.138 73.6348 810.536 80.5827C782.358 93.9998 755.187 83.3696 720.751 69.9059C668.807 49.6034 597.663 21.7935 478.901 62.2194C370.981 98.9579 299.008 61.8392 267.604 14.8509C250.477 -10.8521 243.028 -41.3112 246.099 -73.2662ZM618.186 -183.614C611.096 -186.368 603.3 -189.6 595.048 -193.019C517.621 -225.062 388.042 -278.71 290.961 -168.204C241.342 -111.731 232.68 -40.202 268.903 14.0031C300.019 60.5288 371.359 97.2465 478.454 60.7845C597.74 20.1717 669.164 48.1036 721.337 68.4913C755.431 81.8192 782.359 92.3471 809.924 79.219C823.946 72.5397 830.929 60.4467 830.691 43.2548C829.847 -17.2538 734.867 -131.958 618.186 -183.614Z" fill="#007DC5"/>
<path opacity="0.62" d="M264.479 -72.5359C267.469 -103.645 281.381 -135.175 305.711 -162.872C397.42 -267.251 519.5 -216.72 592.439 -186.524C600.174 -183.321 607.483 -180.293 614.124 -177.718C664.083 -155.605 715.229 -118.108 754.443 -74.8686C791.473 -34.0063 813.814 7.54795 814.216 36.2859C814.458 53.0195 807.615 64.8096 793.899 71.3444C767.47 83.9331 741.967 73.9614 709.664 61.3355C660.991 42.3042 594.329 16.2457 483.04 54.1314C381.863 88.5841 314.346 53.7362 284.896 9.6958C268.371 -15.0242 261.698 -43.5977 264.479 -72.5359ZM613.522 -176.225C606.874 -178.81 599.564 -181.829 591.829 -185.032C519.286 -215.064 397.886 -265.356 306.913 -161.8C260.432 -108.931 252.347 -41.9182 286.219 8.85804C315.332 52.4392 382.198 86.829 482.523 52.6741C594.361 14.5959 661.335 40.7794 710.246 59.8966C742.181 72.3846 767.411 82.243 793.211 69.9496C806.342 63.7382 812.873 52.4005 812.643 36.3562C811.861 -20.3505 722.862 -127.837 613.522 -176.225Z" fill="#007DC5"/>
<path opacity="0.67" d="M283.102 -72.1934C285.894 -101.241 298.885 -130.677 321.607 -156.536C407.217 -253.988 521.174 -206.816 589.26 -178.628C596.478 -175.641 603.293 -172.819 609.483 -170.413C712.026 -125.019 795.493 -23.9955 796.243 29.4262C796.468 44.8611 789.882 56.1936 777.227 62.2214C752.529 73.988 728.711 64.6764 698.558 52.8897C653.154 35.1375 590.966 10.8296 487.158 46.1682C392.694 78.332 329.658 45.8206 302.138 4.66236C286.743 -18.486 280.505 -45.1671 283.102 -72.1934ZM608.86 -168.86C602.662 -171.275 595.837 -174.066 588.622 -177.084C520.93 -205.1 407.688 -251.982 322.862 -155.435C279.528 -106.1 271.958 -43.6317 303.612 3.72061C330.763 44.3532 393.107 76.4262 486.687 44.565C591.043 9.04181 653.561 33.4604 699.208 51.3073C728.988 62.9474 752.509 72.1434 776.551 60.6934C788.743 54.882 794.808 44.3616 794.582 29.4248C793.877 -23.4707 710.856 -123.708 608.86 -168.86Z" fill="#007DC5"/>
<path opacity="0.71" d="M301.733 -71.8502C304.325 -98.8294 316.389 -126.18 337.503 -150.201C417.021 -240.717 522.848 -196.913 586.075 -170.741C592.775 -167.97 599.103 -165.345 604.852 -163.116C700.075 -120.972 777.626 -27.0966 778.281 22.4567C778.481 36.8296 772.359 47.3762 760.574 52.9894C737.616 63.9347 715.481 55.2831 687.471 44.3271C645.329 27.8532 587.623 5.29666 491.292 38.1272C403.541 68.0021 345.019 37.799 319.433 -0.437216C305.114 -21.9479 299.319 -46.7359 301.733 -71.8502ZM604.197 -161.487C598.441 -163.724 592.106 -166.35 585.405 -169.121C522.612 -195.116 417.508 -238.622 338.816 -149.046C298.608 -103.278 291.593 -45.3353 320.936 -1.42371C346.116 36.2673 403.954 66.0093 490.765 36.4553C587.705 3.45402 645.753 26.1619 688.148 42.7156C715.762 53.5149 737.584 62.0415 759.862 51.4263C771.141 46.0571 776.759 36.3161 776.568 22.4978C775.883 -26.576 698.842 -119.587 604.197 -161.487Z" fill="#007DC5"/>
<path opacity="0.76" d="M320.359 -71.539C322.753 -96.4574 333.88 -121.715 353.41 -143.895C426.845 -227.483 524.54 -187.039 582.915 -162.876C589.098 -160.32 594.94 -157.9 600.238 -155.841L600.277 -155.837C688.18 -116.856 759.731 -30.2476 760.36 15.5467C760.546 28.8347 754.877 38.6182 743.962 43.8168C722.728 53.9392 702.286 45.9485 676.409 35.8302C637.537 20.6353 584.313 -0.169756 495.458 30.0815C414.427 57.6682 360.344 29.7501 336.761 -5.54935C323.764 -24.9595 317.962 -48.3026 320.359 -71.539ZM599.553 -154.143C594.218 -156.238 588.398 -158.624 582.215 -161.187C524.297 -185.164 427.354 -225.291 354.791 -142.711C317.719 -100.524 311.248 -47.1 338.296 -6.6198C361.513 28.1226 414.845 55.5415 494.887 28.2868C584.358 -2.12664 637.972 18.8266 677.08 34.1232C702.545 44.0754 722.658 51.9475 743.172 42.1671C753.54 37.2244 758.741 28.2816 758.531 15.5686C757.898 -29.6883 686.836 -115.458 599.534 -154.114L599.553 -154.143Z" fill="#007DC5"/>
<path opacity="0.81" d="M338.985 -71.1567C341.183 -94.022 351.404 -117.184 369.288 -137.537C436.631 -214.19 526.196 -177.113 579.741 -154.956C585.407 -152.608 590.754 -150.394 595.61 -148.504C676.215 -112.818 741.846 -33.4058 742.403 8.60935C742.571 20.8439 737.349 29.84 727.304 34.6319C707.803 43.9165 689.053 36.5944 665.318 27.3146C629.715 13.3988 580.966 -5.66348 499.584 22.0398C425.275 47.3227 375.673 21.7411 354.049 -10.6496C342.128 -28.4463 336.8 -49.8484 338.985 -71.1567ZM594.871 -146.732C590.007 -148.623 584.656 -150.877 578.986 -153.186C525.944 -175.152 437.131 -211.904 370.726 -136.292C336.793 -97.6388 330.864 -48.7737 355.591 -11.7272C376.845 20.0745 425.665 45.1617 498.95 20.2391C580.987 -7.69388 630.12 11.4922 665.987 25.5363C689.295 34.6486 707.702 41.8427 726.455 32.9291C735.906 28.3964 740.643 20.2553 740.486 8.63867C739.913 -32.8007 674.831 -111.337 594.871 -146.732Z" fill="#007DC5"/>
<path opacity="0.86" d="M357.616 -70.8134C359.615 -91.61 368.916 -112.686 385.175 -131.202C446.443 -200.918 527.87 -167.209 576.5 -147.067C581.649 -144.935 586.511 -142.941 590.963 -141.208C664.232 -108.773 723.878 -36.5323 724.407 1.66043C724.575 12.8274 719.799 21.0517 710.617 25.4204C692.856 33.8837 675.79 27.2139 654.197 18.7726C621.861 6.17498 577.588 -11.168 503.687 13.988C436.097 36.9985 390.965 13.7049 371.314 -15.7678C360.472 -31.959 355.627 -51.4292 357.616 -70.8134ZM590.208 -139.359C585.786 -141.081 580.918 -143.091 575.746 -145.225C527.602 -165.162 446.991 -198.556 386.678 -129.887C355.884 -94.8393 350.497 -50.4693 372.96 -16.8512C392.244 12.001 436.549 34.7722 503.075 12.1261C577.664 -13.2723 622.336 4.18825 654.951 16.9391C676.11 25.2043 692.801 31.7353 709.794 23.6173C718.338 19.5511 722.588 12.1935 722.451 1.68601C721.92 -35.9059 662.817 -107.209 590.208 -139.359Z" fill="#007DC5"/>
<path opacity="0.9" d="M376.247 -70.4702C378.047 -89.206 386.42 -108.188 401.071 -124.866C456.232 -187.656 529.544 -157.305 573.351 -139.152C577.975 -137.237 582.348 -135.425 586.289 -133.884C652.238 -104.691 705.924 -39.6417 706.407 -5.24937C706.543 4.85474 702.23 12.2932 693.926 16.2481C677.889 23.8885 662.516 17.8795 643.095 10.2797C614.04 -1.07728 574.238 -16.6383 507.81 5.97765C446.941 26.7 406.292 5.71164 388.544 -20.842C378.788 -35.4469 374.439 -53.0001 376.247 -70.4702ZM585.545 -131.986C581.565 -133.531 577.169 -135.345 572.56 -137.259C529.268 -155.18 456.808 -185.173 402.624 -123.499C374.972 -92.0164 370.132 -52.1807 390.3 -22.0018C407.58 3.91368 447.419 24.3576 507.176 4.01086C574.324 -18.8444 614.523 -3.13452 643.882 8.34662C662.876 15.7711 677.877 21.6334 693.125 14.3838C700.758 10.744 704.555 4.14961 704.435 -5.21746C703.934 -39.0105 650.807 -103.049 585.545 -131.986Z" fill="#007DC5"/>
<path opacity="0.95" d="M394.87 -70.1277C396.472 -86.8027 403.932 -103.698 416.967 -118.53C466.036 -174.385 531.249 -147.398 570.167 -131.281C574.305 -129.571 578.161 -127.974 581.682 -126.6L581.729 -126.595C640.366 -100.636 688.093 -42.7867 688.521 -12.1878C688.633 -3.14571 684.783 3.50688 677.34 7.05422C663.036 13.8647 649.354 8.5166 632.037 1.75147C606.244 -8.33505 570.924 -22.1446 511.976 -2.06808C457.819 16.3732 421.646 -2.31073 405.816 -25.9516C397.134 -38.9527 393.262 -54.5769 394.87 -70.1277ZM580.882 -124.605C577.352 -125.98 573.488 -127.577 569.343 -129.296C530.934 -145.198 466.667 -171.809 418.578 -117.11C394.062 -89.2091 389.774 -53.8913 407.647 -27.1439C422.996 -4.17394 458.266 13.9409 511.277 -4.09651C570.965 -24.4579 606.716 -10.4487 632.814 -0.245817C649.651 6.33081 662.952 11.5315 676.419 5.11519C683.132 1.91688 686.473 -3.87524 686.363 -12.1183C685.949 -42.1228 638.805 -98.9592 580.882 -124.605Z" fill="#007DC5"/>
<path d="M413.5 -69.7846C414.904 -84.3908 421.436 -99.2001 432.857 -112.211C475.841 -161.121 532.9 -137.504 567.019 -123.383C570.632 -121.889 574.002 -120.497 577.082 -119.3L577.129 -119.295C628.446 -96.5779 670.213 -45.9206 670.587 -19.1228C670.698 -11.1406 667.287 -5.27614 660.723 -2.14264C648.143 3.84495 636.153 -0.842269 620.968 -6.75399C598.452 -15.5529 567.614 -27.6111 516.108 -10.0934C468.687 6.06132 436.983 -10.3189 423.142 -31.0403C415.506 -42.4346 412.095 -56.1405 413.5 -69.7846ZM576.227 -117.231C573.178 -118.425 569.762 -119.829 566.141 -121.324C532.569 -135.211 476.462 -158.452 434.524 -110.722C413.151 -86.394 409.401 -55.6034 424.978 -32.2874C438.364 -12.2582 469.136 3.53423 515.378 -12.2117C567.622 -29.9986 598.903 -17.7714 621.746 -8.83825C636.426 -3.1016 648.019 1.42894 659.721 -4.14481C665.523 -6.91662 668.426 -11.9363 668.321 -19.0796C667.966 -45.2508 626.8 -94.8381 576.219 -117.232L576.227 -117.231Z" fill="#007DC5"/>
</g>
<defs>
<clipPath id="clip0_1220_76385">
<rect width="554.5" height="1040.43" fill="white" transform="translate(1088.71 -293.471) rotate(95.4894)"/>
</clipPath>
</defs>
</svg>
