<svg width="15" height="8" viewBox="0 0 15 8" fill="none" xmlns="http://www.w3.org/2000/svg">
<path d="M1.99725 7.99986C2.2309 8.00031 2.45734 7.91894 2.63725 7.76986L7.99725 3.28986L13.3672 7.60986C13.4695 7.69292 13.5872 7.75496 13.7136 7.79239C13.8399 7.82982 13.9724 7.84191 14.1034 7.82797C14.2345 7.81403 14.3614 7.77434 14.4771 7.71116C14.5927 7.64799 14.6947 7.56258 14.7773 7.45986C14.8603 7.35757 14.9223 7.23987 14.9598 7.11354C14.9972 6.9872 15.0093 6.8547 14.9954 6.72368C14.9814 6.59265 14.9417 6.46567 14.8786 6.35003C14.8154 6.23439 14.73 6.13238 14.6272 6.04986L8.62725 1.21986C8.44832 1.07278 8.22388 0.992371 7.99225 0.992371C7.76062 0.992371 7.53618 1.07278 7.35725 1.21986L1.35725 6.21986C1.25599 6.30381 1.17229 6.40691 1.11094 6.52325C1.04959 6.6396 1.01179 6.76691 0.999712 6.89789C0.987637 7.02886 1.00152 7.16094 1.04056 7.28654C1.07961 7.41214 1.14305 7.52881 1.22725 7.62986C1.3203 7.74457 1.43761 7.83725 1.57075 7.90122C1.70389 7.9652 1.84954 7.99888 1.99725 7.99986Z" fill="#747B85"/>
</svg>
