<svg width="16" height="8" viewBox="0 0 16 8" fill="none" xmlns="http://www.w3.org/2000/svg">
<path d="M13.9998 0.992543C13.7662 0.992086 13.5397 1.07346 13.3598 1.22254L7.99982 5.70254L2.62982 1.38254C2.52753 1.29948 2.40984 1.23745 2.2835 1.20001C2.15716 1.16258 2.02467 1.15049 1.89364 1.16443C1.76261 1.17837 1.63563 1.21806 1.51999 1.28124C1.40435 1.34441 1.30234 1.42982 1.21982 1.53254C1.13675 1.63483 1.07472 1.75253 1.03729 1.87887C0.99986 2.00521 0.987766 2.1377 1.0017 2.26872C1.01564 2.39975 1.05534 2.52674 1.11852 2.64237C1.18169 2.75801 1.26709 2.86002 1.36982 2.94254L7.36982 7.77254C7.54875 7.91962 7.7732 8.00003 8.00482 8.00003C8.23645 8.00003 8.46089 7.91962 8.63982 7.77254L14.6398 2.77254C14.7411 2.68859 14.8248 2.58549 14.8861 2.46915C14.9475 2.3528 14.9853 2.22549 14.9974 2.09451C15.0094 1.96354 14.9956 1.83147 14.9565 1.70586C14.9175 1.58026 14.854 1.46359 14.7698 1.36254C14.6768 1.24783 14.5595 1.15516 14.4263 1.09118C14.2932 1.02721 14.1475 0.993519 13.9998 0.992543Z" fill="#747B85"/>
</svg>
