<svg width="16" height="16" viewBox="0 0 16 16" fill="none" xmlns="http://www.w3.org/2000/svg">
<path d="M9.96575 2.24843C9.80959 2.09227 9.72179 1.8805 9.72166 1.65965C9.72179 1.43881 9.80959 1.22704 9.96575 1.07088C10.1219 0.914713 10.3337 0.82692 10.5545 0.826783L14.4832 0.826783C14.704 0.826921 14.9158 0.914713 15.0719 1.07088C15.2281 1.22704 15.3159 1.43881 15.316 1.65965L15.316 5.58829C15.32 5.70014 15.3014 5.81164 15.2613 5.91613C15.2212 6.02063 15.1605 6.11598 15.0828 6.1965C15.005 6.27702 14.9119 6.34106 14.8089 6.3848C14.7059 6.42854 14.5951 6.45108 14.4832 6.45108C14.3713 6.45108 14.2605 6.42854 14.1575 6.3848C14.0544 6.34106 13.9613 6.27702 13.8836 6.1965C13.8058 6.11598 13.7451 6.02063 13.705 5.91613C13.665 5.81164 13.6463 5.70014 13.6503 5.58829L13.6503 3.67112L11.1438 6.17759C10.9875 6.33388 10.7756 6.42168 10.5545 6.42168C10.3335 6.42168 10.1215 6.33388 9.96523 6.17759C9.80894 6.0213 9.72114 5.80932 9.72114 5.58829C9.72114 5.36727 9.80894 5.15529 9.96523 4.999L12.4717 2.49253L10.5545 2.49253C10.3337 2.49239 10.1219 2.4046 9.96575 2.24843Z" fill="#747B85"/>
<path d="M6.01758 2.23851C5.86761 2.39387 5.66318 2.48495 5.44738 2.49257L3.5302 2.49257L6.03667 4.99904C6.19297 5.15534 6.28077 5.36731 6.28077 5.58834C6.28077 5.80937 6.19297 6.02134 6.03667 6.17764C5.88038 6.33393 5.66841 6.42173 5.44738 6.42173C5.22635 6.42173 5.01437 6.33393 4.85808 6.17764L2.35161 3.67116L2.35161 5.58834C2.34399 5.80415 2.25291 6.00857 2.09755 6.15854C1.94219 6.30852 1.73468 6.39233 1.51874 6.39233C1.3028 6.39233 1.09529 6.30852 0.939931 6.15854C0.784569 6.00857 0.693485 5.80414 0.685868 5.58834L0.685868 1.6597C0.686005 1.43885 0.773798 1.22709 0.929962 1.07092C1.08613 0.914759 1.29789 0.826967 1.51874 0.826829L5.44738 0.826829C5.66318 0.834446 5.86761 0.925531 6.01758 1.08089C6.16755 1.23625 6.25137 1.44376 6.25137 1.6597C6.25137 1.87564 6.16755 2.08315 6.01758 2.23851Z" fill="#747B85"/>
<path d="M14.4834 9.86272C14.7042 9.86286 14.916 9.95066 15.0721 10.1068C15.2283 10.263 15.3161 10.4747 15.3162 10.6956L15.3162 14.6242C15.3161 14.8451 15.2283 15.0568 15.0721 15.213C14.916 15.3692 14.7042 15.457 14.4834 15.4571H10.5547C10.4429 15.4611 10.3314 15.4424 10.2269 15.4024C10.1224 15.3623 10.027 15.3016 9.94652 15.2238C9.866 15.1461 9.80196 15.053 9.75822 14.9499C9.71448 14.8469 9.69194 14.7362 9.69194 14.6242C9.69194 14.5123 9.71448 14.4015 9.75822 14.2985C9.80196 14.1955 9.866 14.1024 9.94652 14.0246C10.027 13.9469 10.1224 13.8862 10.2269 13.8461C10.3314 13.806 10.4429 13.7874 10.5547 13.7914L12.4719 13.7914L9.96543 11.2849C9.80914 11.1286 9.72134 10.9166 9.72134 10.6956C9.72134 10.4746 9.80914 10.2626 9.96543 10.1063C10.1217 9.95001 10.3337 9.86221 10.5547 9.86221C10.7758 9.86221 10.9877 9.95001 11.144 10.1063L13.6505 12.6128L13.6505 10.6956C13.6506 10.4747 13.7384 10.263 13.8946 10.1068C14.0508 9.95065 14.2625 9.86286 14.4834 9.86272Z" fill="#747B85"/>
<path d="M2.35166 10.6958V12.613L4.85814 10.1065C5.01443 9.95022 5.2264 9.86241 5.44743 9.86241C5.66846 9.86241 5.88044 9.95022 6.03673 10.1065C6.19302 10.2628 6.28082 10.4748 6.28082 10.6958C6.28082 10.9168 6.19302 11.1288 6.03673 11.2851L3.53026 13.7916L5.44743 13.7916C5.55928 13.7876 5.67078 13.8062 5.77527 13.8463C5.87977 13.8864 5.97512 13.9471 6.05564 14.0248C6.13616 14.1026 6.2002 14.1957 6.24394 14.2987C6.28768 14.4018 6.31022 14.5125 6.31022 14.6244C6.31022 14.7364 6.28768 14.8471 6.24394 14.9501C6.2002 15.0532 6.13616 15.1463 6.05564 15.224C5.97512 15.3018 5.87977 15.3625 5.77527 15.4026C5.67078 15.4426 5.55928 15.4613 5.44743 15.4573H1.51879C1.29794 15.4572 1.08618 15.3694 0.930015 15.2132C0.773852 15.0571 0.686059 14.8453 0.685921 14.6244L0.68592 10.6958C0.693539 10.48 0.784623 10.2756 0.939983 10.1256C1.09535 9.97563 1.30285 9.89181 1.51879 9.89181C1.73473 9.89181 1.94224 9.97563 2.0976 10.1256C2.25296 10.2756 2.34405 10.48 2.35166 10.6958Z" fill="#747B85"/>
</svg>
