<svg width="17" height="16" viewBox="0 0 17 16" fill="none" xmlns="http://www.w3.org/2000/svg">
<path d="M9.25 1.25C9.25 0.835786 8.91421 0.5 8.5 0.5C8.08579 0.5 7.75 0.835786 7.75 1.25V7.25H1.75C1.33579 7.25 1 7.58579 1 8C1 8.41421 1.33579 8.75 1.75 8.75H7.75V14.75C7.75 15.1642 8.08579 15.5 8.5 15.5C8.91421 15.5 9.25 15.1642 9.25 14.75V8.75H15.25C15.6642 8.75 16 8.41421 16 8C16 7.58579 15.6642 7.25 15.25 7.25H9.25V1.25Z" fill="#747B85" stroke="#747B85" stroke-linecap="round" stroke-linejoin="round"/>
</svg>
