<svg width="8" height="15" viewBox="0 0 8 15" fill="none" xmlns="http://www.w3.org/2000/svg">
<path d="M0.494954 1.4953C0.494497 1.72895 0.575872 1.95538 0.724953 2.1353L5.20495 7.4953L0.884954 12.8653C0.801888 12.9676 0.739856 13.0853 0.702425 13.2116C0.664993 13.338 0.652899 13.4705 0.666838 13.6015C0.680778 13.7325 0.720474 13.8595 0.783648 13.9751C0.846822 14.0908 0.932227 14.1928 1.03495 14.2753C1.13724 14.3584 1.25494 14.4204 1.38128 14.4578C1.50762 14.4953 1.64011 14.5074 1.77114 14.4934C1.90216 14.4795 2.02915 14.4398 2.14478 14.3766C2.26042 14.3134 2.36243 14.228 2.44495 14.1253L7.27495 8.1253C7.42204 7.94636 7.50244 7.72192 7.50244 7.4903C7.50244 7.25867 7.42204 7.03423 7.27495 6.8553L2.27495 0.855297C2.191 0.754039 2.0879 0.670336 1.97156 0.608984C1.85521 0.547632 1.7279 0.509834 1.59693 0.497759C1.46595 0.485683 1.33388 0.499566 1.20827 0.53861C1.08267 0.577655 0.966002 0.641094 0.864954 0.725296C0.75024 0.81835 0.657566 0.935661 0.593591 1.0688C0.529616 1.20193 0.49593 1.34759 0.494954 1.4953Z" fill="#747B85"/>
</svg>
