<svg width="24" height="21" viewBox="0 0 24 21" fill="none" xmlns="http://www.w3.org/2000/svg">
<path d="M0 1.25029C0 0.587551 0.537258 0.050293 1.2 0.050293H22.8C23.4627 0.050293 24 0.587551 24 1.25029C24 1.91303 23.4627 2.45029 22.8 2.45029H1.2C0.537258 2.45029 0 1.91303 0 1.25029Z" fill="#4F4C4A"/>
<path d="M0 10.2503C0 9.58755 0.537258 9.05029 1.2 9.05029H22.8C23.4627 9.05029 24 9.58755 24 10.2503C24 10.913 23.4627 11.4503 22.8 11.4503H1.2C0.537258 11.4503 0 10.913 0 10.2503Z" fill="#4F4C4A"/>
<path d="M1.2 18.0503C0.537258 18.0503 0 18.5876 0 19.2503C0 19.913 0.537258 20.4503 1.2 20.4503H22.8C23.4627 20.4503 24 19.913 24 19.2503C24 18.5876 23.4627 18.0503 22.8 18.0503H1.2Z" fill="#4F4C4A"/>
</svg>
