<svg width="18" height="18" viewBox="0 0 18 18" fill="none" xmlns="http://www.w3.org/2000/svg">
<path d="M9 0C9.23869 0 9.46761 0.0948211 9.6364 0.263604C9.80518 0.432387 9.9 0.661305 9.9 0.9V1.8C9.9 2.03869 9.80518 2.26761 9.6364 2.4364C9.46761 2.60518 9.23869 2.7 9 2.7C8.7613 2.7 8.53239 2.60518 8.3636 2.4364C8.19482 2.26761 8.1 2.03869 8.1 1.8V0.9C8.1 0.661305 8.19482 0.432387 8.3636 0.263604C8.53239 0.0948211 8.7613 0 9 0ZM15.3639 2.6361C15.5326 2.80487 15.6274 3.03375 15.6274 3.2724C15.6274 3.51105 15.5326 3.73992 15.3639 3.9087L14.7276 4.545C14.6446 4.63096 14.5453 4.69952 14.4355 4.74669C14.3257 4.79386 14.2076 4.81869 14.0881 4.81973C13.9686 4.82076 13.85 4.79799 13.7394 4.75274C13.6288 4.70749 13.5283 4.64066 13.4438 4.55616C13.3593 4.47165 13.2925 4.37117 13.2473 4.26056C13.202 4.14995 13.1792 4.03144 13.1803 3.91194C13.1813 3.79244 13.2061 3.67434 13.2533 3.56454C13.3005 3.45473 13.369 3.35542 13.455 3.2724L14.0913 2.6361C14.2601 2.46738 14.489 2.37259 14.7276 2.37259C14.9662 2.37259 15.1951 2.46738 15.3639 2.6361ZM2.6361 2.6361C2.80487 2.46738 3.03375 2.37259 3.2724 2.37259C3.51105 2.37259 3.73992 2.46738 3.9087 2.6361L4.545 3.2724C4.70894 3.44214 4.79966 3.66948 4.79761 3.90546C4.79556 4.14144 4.7009 4.36717 4.53404 4.53404C4.36717 4.7009 4.14144 4.79556 3.90546 4.79761C3.66948 4.79966 3.44214 4.70894 3.2724 4.545L2.6361 3.9087C2.46738 3.73992 2.37259 3.51105 2.37259 3.2724C2.37259 3.03375 2.46738 2.80487 2.6361 2.6361ZM9 5.4C8.04522 5.4 7.12955 5.77928 6.45442 6.45442C5.77928 7.12955 5.4 8.04522 5.4 9C5.4 9.95478 5.77928 10.8705 6.45442 11.5456C7.12955 12.2207 8.04522 12.6 9 12.6C9.95478 12.6 10.8705 12.2207 11.5456 11.5456C12.2207 10.8705 12.6 9.95478 12.6 9C12.6 8.04522 12.2207 7.12955 11.5456 6.45442C10.8705 5.77928 9.95478 5.4 9 5.4ZM3.6 9C3.6 7.56783 4.16893 6.19432 5.18162 5.18162C6.19432 4.16893 7.56783 3.6 9 3.6C10.4322 3.6 11.8057 4.16893 12.8184 5.18162C13.8311 6.19432 14.4 7.56783 14.4 9C14.4 10.4322 13.8311 11.8057 12.8184 12.8184C11.8057 13.8311 10.4322 14.4 9 14.4C7.56783 14.4 6.19432 13.8311 5.18162 12.8184C4.16893 11.8057 3.6 10.4322 3.6 9ZM0 9C0 8.7613 0.0948211 8.53239 0.263604 8.3636C0.432387 8.19482 0.661305 8.1 0.9 8.1H1.8C2.03869 8.1 2.26761 8.19482 2.4364 8.3636C2.60518 8.53239 2.7 8.7613 2.7 9C2.7 9.23869 2.60518 9.46761 2.4364 9.6364C2.26761 9.80518 2.03869 9.9 1.8 9.9H0.9C0.661305 9.9 0.432387 9.80518 0.263604 9.6364C0.0948211 9.46761 0 9.23869 0 9ZM15.3 9C15.3 8.7613 15.3948 8.53239 15.5636 8.3636C15.7324 8.19482 15.9613 8.1 16.2 8.1H17.1C17.3387 8.1 17.5676 8.19482 17.7364 8.3636C17.9052 8.53239 18 8.7613 18 9C18 9.23869 17.9052 9.46761 17.7364 9.6364C17.5676 9.80518 17.3387 9.9 17.1 9.9H16.2C15.9613 9.9 15.7324 9.80518 15.5636 9.6364C15.3948 9.46761 15.3 9.23869 15.3 9ZM3.2724 13.455C3.44214 13.2911 3.66948 13.2003 3.90546 13.2024C4.14144 13.2044 4.36717 13.2991 4.53404 13.466C4.7009 13.6328 4.79556 13.8586 4.79761 14.0945C4.79966 14.3305 4.70894 14.5579 4.545 14.7276L3.9087 15.3639C3.73896 15.5278 3.51162 15.6186 3.27564 15.6165C3.03966 15.6145 2.81393 15.5198 2.64706 15.3529C2.4802 15.1861 2.38554 14.9603 2.38349 14.7244C2.38144 14.4884 2.47216 14.261 2.6361 14.0913L3.2724 13.455ZM13.455 14.7276C13.2911 14.5579 13.2003 14.3305 13.2024 14.0945C13.2044 13.8586 13.2991 13.6328 13.466 13.466C13.6328 13.2991 13.8586 13.2044 14.0945 13.2024C14.3305 13.2003 14.5579 13.2911 14.7276 13.455L15.3639 14.0913C15.5278 14.261 15.6186 14.4884 15.6165 14.7244C15.6145 14.9603 15.5198 15.1861 15.3529 15.3529C15.1861 15.5198 14.9603 15.6145 14.7244 15.6165C14.4884 15.6186 14.261 15.5278 14.0913 15.3639L13.455 14.7276ZM9 15.3C9.23869 15.3 9.46761 15.3948 9.6364 15.5636C9.80518 15.7324 9.9 15.9613 9.9 16.2V17.1C9.9 17.3387 9.80518 17.5676 9.6364 17.7364C9.46761 17.9052 9.23869 18 9 18C8.7613 18 8.53239 17.9052 8.3636 17.7364C8.19482 17.5676 8.1 17.3387 8.1 17.1V16.2C8.1 15.9613 8.19482 15.7324 8.3636 15.5636C8.53239 15.3948 8.7613 15.3 9 15.3Z" fill="#747B85"/>
</svg>
