<svg width="24" height="24" viewBox="0 0 24 24" fill="none" xmlns="http://www.w3.org/2000/svg">
<g clip-path="url(#clip0)">
<path d="M23.3364 4.4616L16.1364 0.8616C15.9697 0.778176 15.7858 0.734741 15.5994 0.734741C15.413 0.734741 15.2291 0.778176 15.0624 0.8616L8.3064 4.2396L1.5792 1.9968C1.3988 1.93672 1.20671 1.92036 1.01874 1.94908C0.830784 1.9778 0.652338 2.05077 0.498114 2.16199C0.343889 2.2732 0.2183 2.41948 0.131696 2.58875C0.045093 2.75803 -4.57553e-05 2.94546 3.48033e-08 3.1356V18.7368C3.48033e-08 19.1916 0.2568 19.6068 0.6636 19.8096L7.8636 23.4096C8.03032 23.4923 8.2139 23.5353 8.4 23.5353C8.5861 23.5353 8.76968 23.4923 8.9364 23.4096L15.6924 20.0328L22.4196 22.2756C22.6 22.336 22.7922 22.3525 22.9803 22.3239C23.1683 22.2953 23.3469 22.2224 23.5012 22.1111C23.6555 21.9998 23.7811 21.8534 23.8676 21.684C23.9541 21.5146 23.9991 21.327 23.9988 21.1368V5.5344C23.9993 5.31162 23.9376 5.09311 23.8206 4.90355C23.7035 4.71399 23.5358 4.56091 23.3364 4.4616ZM9.6 6.2772L14.4 3.8772V17.9928L9.6 20.3928V6.2772ZM2.4 4.8L7.2 6.3996V20.3928L2.4 17.9928V4.8ZM21.6 19.4724L16.8 17.8716V3.8772L21.6 6.2772V19.4724Z" fill="#747B85"/>
</g>
<defs>
<clipPath id="clip0">
<rect width="24" height="24" fill="white"/>
</clipPath>
</defs>
</svg>
