<svg width="16" height="16" viewBox="0 0 16 16" fill="none" xmlns="http://www.w3.org/2000/svg">
<path fill-rule="evenodd" clip-rule="evenodd" d="M3.2 1.32H12.8C13.8383 1.32 14.68 2.1617 14.68 3.2V12.8C14.68 13.8383 13.8383 14.68 12.8 14.68H3.2C2.1617 14.68 1.32 13.8383 1.32 12.8V3.2C1.32 2.1617 2.1617 1.32 3.2 1.32ZM0 3.2C0 1.43269 1.43269 0 3.2 0H12.8C14.5673 0 16 1.43269 16 3.2V12.8C16 14.5673 14.5673 16 12.8 16H3.2C1.43269 16 0 14.5673 0 12.8V3.2ZM6.16369 11.069C6.36388 11.1559 6.57843 11.2004 6.79505 11.2C7.01167 11.2004 7.22623 11.1559 7.42641 11.069C7.62659 10.9822 7.80845 10.8547 7.96153 10.6938L12.8 5.61612L12.0223 4.8L7.18388 9.8777C7.08074 9.9859 6.94089 10.0467 6.79505 10.0467C6.64922 10.0467 6.50937 9.9859 6.40623 9.8777L3.97766 7.32904L3.2 8.14573L5.62857 10.6938C5.78165 10.8547 5.96351 10.9822 6.16369 11.069Z" fill="#4F4C4A"/>
</svg>
