<svg width="24" height="24" viewBox="0 0 24 24" fill="none" xmlns="http://www.w3.org/2000/svg">
<g clip-path="url(#clip0)">
<path d="M18.0084 8.38818H6.02533C5.70752 8.38818 5.40273 8.51443 5.178 8.73915C4.95327 8.96388 4.82702 9.26868 4.82702 9.58649C4.82702 9.9043 4.95327 10.2091 5.178 10.4338C5.40273 10.6585 5.70752 10.7848 6.02533 10.7848H18.0084C18.3263 10.7848 18.6311 10.6585 18.8558 10.4338C19.0805 10.2091 19.2068 9.9043 19.2068 9.58649C19.2068 9.26868 19.0805 8.96388 18.8558 8.73915C18.6311 8.51443 18.3263 8.38818 18.0084 8.38818ZM13.2152 13.1814H6.02533C5.70752 13.1814 5.40273 13.3077 5.178 13.5324C4.95327 13.7571 4.82702 14.0619 4.82702 14.3797C4.82702 14.6975 4.95327 15.0023 5.178 15.2271C5.40273 15.4518 5.70752 15.578 6.02533 15.578H13.2152C13.533 15.578 13.8378 15.4518 14.0625 15.2271C14.2873 15.0023 14.4135 14.6975 14.4135 14.3797C14.4135 14.0619 14.2873 13.7571 14.0625 13.5324C13.8378 13.3077 13.533 13.1814 13.2152 13.1814ZM12.0169 0C10.4432 0 8.88501 0.309952 7.43115 0.91216C5.97729 1.51437 4.65628 2.39704 3.54355 3.50977C1.29628 5.75704 0.033776 8.80499 0.033776 11.9831C0.0233002 14.7502 0.981391 17.4337 2.74196 19.5684L0.345337 21.965C0.179062 22.1336 0.0664254 22.3475 0.0216395 22.58C-0.0231463 22.8125 0.00192556 23.053 0.0936916 23.2712C0.193221 23.4868 0.354569 23.668 0.557254 23.7917C0.75994 23.9155 0.994823 23.9762 1.23209 23.9662H12.0169C15.195 23.9662 18.243 22.7037 20.4902 20.4564C22.7375 18.2092 24 15.1612 24 11.9831C24 8.80499 22.7375 5.75704 20.4902 3.50977C18.243 1.2625 15.195 0 12.0169 0ZM12.0169 21.5696H4.12002L5.23445 20.4552C5.45763 20.2307 5.58291 19.9269 5.58291 19.6104C5.58291 19.2938 5.45763 18.9901 5.23445 18.7656C3.66536 17.1982 2.68824 15.1353 2.46957 12.9283C2.2509 10.7213 2.8042 8.50682 4.03521 6.66204C5.26622 4.81726 7.09877 3.45636 9.22065 2.81121C11.3425 2.16605 13.6225 2.27656 15.672 3.12389C17.7215 3.97123 19.4139 5.50297 20.4607 7.45816C21.5075 9.41334 21.8441 11.671 21.413 13.8465C20.9819 16.022 19.8099 17.9807 18.0966 19.389C16.3833 20.7972 14.2347 21.5679 12.0169 21.5696Z" fill="#747B85"/>
</g>
<defs>
<clipPath id="clip0">
<rect width="24" height="24" fill="white"/>
</clipPath>
</defs>
</svg>
