<svg width="22" height="22" viewBox="0 0 22 22" fill="none" xmlns="http://www.w3.org/2000/svg">
<path d="M16 1.5H3C2.60218 1.5 2.22064 1.65804 1.93934 1.93934C1.65804 2.22064 1.5 2.60218 1.5 3V16C1.5 16.3978 1.65804 16.7794 1.93934 17.0607C2.22064 17.342 2.60218 17.5 3 17.5H16C16.3978 17.5 16.7794 17.342 17.0607 17.0607C17.342 16.7794 17.5 16.3978 17.5 16V3C17.5 2.60218 17.342 2.22064 17.0607 1.93934C16.7794 1.65804 16.3978 1.5 16 1.5Z" stroke="#747B85" stroke-width="2" stroke-linejoin="round"/>
<path d="M21.0005 5.50098V20C21.0005 20.2652 20.8951 20.5195 20.7076 20.7071C20.52 20.8946 20.2657 21 20.0005 21H5.50195" stroke="#747B85" stroke-width="2" stroke-linecap="round" stroke-linejoin="round"/>
<path d="M5.5 9.24288L8.5 12.0054L13.5 6.85938" stroke="#747B85" stroke-width="2" stroke-linecap="round" stroke-linejoin="round"/>
</svg>
