<svg width="40" height="40" viewBox="0 0 40 40" fill="none" xmlns="http://www.w3.org/2000/svg">
<path fill-rule="evenodd" clip-rule="evenodd" d="M0 19.9999C0 8.95386 8.954 -0.000137329 20 -0.000137329C31.046 -0.000137329 40 8.95386 40 19.9999C40 31.0459 31.046 39.9999 20 39.9999C8.954 39.9999 0 31.0459 0 19.9999ZM3.116 17.9999H4.5C4.89782 17.9999 5.27936 18.1579 5.56066 18.4392C5.84196 18.7205 6 19.102 6 19.4999C6 19.8977 5.84196 20.2792 5.56066 20.5605C5.27936 20.8418 4.89782 20.9999 4.5 20.9999H3.028C3.26308 24.9835 4.89172 28.7575 7.62885 31.6614C10.366 34.5652 14.0372 36.4139 18 36.8839V35.4999C18 35.102 18.158 34.7205 18.4393 34.4392C18.7206 34.1579 19.1022 33.9999 19.5 33.9999C19.8978 33.9999 20.2794 34.1579 20.5607 34.4392C20.842 34.7205 21 35.102 21 35.4999V36.9699C25.1554 36.7244 29.0764 34.9631 32.0198 32.0197C34.9632 29.0762 36.7246 25.1553 36.97 20.9999H35.5C35.1022 20.9999 34.7206 20.8418 34.4393 20.5605C34.158 20.2792 34 19.8977 34 19.4999C34 19.102 34.158 18.7205 34.4393 18.4392C34.7206 18.1579 35.1022 17.9999 35.5 17.9999H36.884C36.4141 14.0371 34.5654 10.3659 31.6615 7.62871C28.7576 4.89158 24.9836 3.26294 21 3.02786V4.49986C21 4.89769 20.842 5.27922 20.5607 5.56052C20.2794 5.84183 19.8978 5.99986 19.5 5.99986C19.1022 5.99986 18.7206 5.84183 18.4393 5.56052C18.158 5.27922 18 4.89769 18 4.49986V3.11586C14.2085 3.56605 10.6787 5.27891 7.97889 7.97875C5.27905 10.6786 3.56619 14.2083 3.116 17.9999Z" fill="#747B85"/>
<path fill-rule="evenodd" clip-rule="evenodd" d="M20.3439 7.70395L23.2643 19.7249L20.3438 31.7747C20.2917 31.8931 20.2067 31.994 20.0988 32.0654C19.9909 32.1367 19.8648 32.1755 19.7355 32.177C19.6061 32.1785 19.4791 32.1428 19.3696 32.074C19.2601 32.0052 19.1727 31.9063 19.1179 31.7891L15.9378 19.7394L19.118 7.68953C19.2766 7.17033 20.1996 7.18475 20.3439 7.70395ZM21.8221 19.7249L17.4954 19.7249L19.738 28.3711L21.8221 19.7249Z" fill="#747B85"/>
</svg>
