<svg width="30" height="30" viewBox="0 0 30 30" fill="none" xmlns="http://www.w3.org/2000/svg">
<path fill-rule="evenodd" clip-rule="evenodd" d="M8.35705 7.63944L17.0578 12.9389L22.3739 21.6565C22.4126 21.7557 22.4219 21.864 22.4006 21.9684C22.3793 22.0727 22.3284 22.1688 22.254 22.245C22.1796 22.3211 22.0848 22.3743 21.9809 22.398C21.8771 22.4217 21.7686 22.415 21.6685 22.3787L12.7998 17.2137L7.63479 8.34491C7.42483 7.95018 7.97072 7.42108 8.35705 7.63944ZM16.2179 13.7787L13.6984 16.2982L20.0392 20.0272L16.2179 13.7787Z" fill="#747B85"/>
<path fill-rule="evenodd" clip-rule="evenodd" d="M0 15C0 6.7155 6.7155 0 15 0C23.2845 0 30 6.7155 30 15C30 23.2845 23.2845 30 15 30C6.7155 30 0 23.2845 0 15ZM2.337 13.5H3.375C3.67337 13.5 3.95952 13.6185 4.1705 13.8295C4.38147 14.0405 4.5 14.3266 4.5 14.625C4.5 14.9234 4.38147 15.2095 4.1705 15.4205C3.95952 15.6315 3.67337 15.75 3.375 15.75H2.271C2.44731 18.7377 3.66879 21.5682 5.72164 23.7461C7.77449 25.924 10.5279 27.3105 13.5 27.663V26.625C13.5 26.3266 13.6185 26.0405 13.8295 25.8295C14.0405 25.6185 14.3266 25.5 14.625 25.5C14.9234 25.5 15.2095 25.6185 15.4205 25.8295C15.6315 26.0405 15.75 26.3266 15.75 26.625V27.7275C18.8665 27.5434 21.8073 26.2224 24.0149 24.0149C26.2224 21.8073 27.5434 18.8666 27.7275 15.75H26.625C26.3266 15.75 26.0405 15.6315 25.8295 15.4205C25.6185 15.2095 25.5 14.9234 25.5 14.625C25.5 14.3266 25.6185 14.0405 25.8295 13.8295C26.0405 13.6185 26.3266 13.5 26.625 13.5H27.663C27.3105 10.5279 25.924 7.77449 23.7461 5.72164C21.5682 3.66879 18.7377 2.44731 15.75 2.271V3.375C15.75 3.67337 15.6315 3.95952 15.4205 4.1705C15.2095 4.38147 14.9234 4.5 14.625 4.5C14.3266 4.5 14.0405 4.38147 13.8295 4.1705C13.6185 3.95952 13.5 3.67337 13.5 3.375V2.337C10.6564 2.67464 8.00905 3.95929 5.98417 5.98417C3.95929 8.00905 2.67464 10.6564 2.337 13.5Z" fill="#747B85"/>
</svg>
