<svg width="24" height="24" viewBox="0 0 24 24" fill="none" xmlns="http://www.w3.org/2000/svg">
<g clip-path="url(#clip0)">
<path d="M16.1349 2.33103C17.3506 3.19679 18.2663 4.41999 18.7545 5.83044C19.8429 5.96545 20.8733 6.39708 21.7329 7.07817C22.5926 7.75926 23.2484 8.66358 23.6288 9.69227C24.0091 10.721 24.0993 11.8344 23.8896 12.9109C23.6798 13.9874 23.1781 14.9856 22.4393 15.7962C22.3272 15.9238 22.1892 16.026 22.0345 16.0962C21.8798 16.1663 21.7119 16.2027 21.542 16.2029C21.2512 16.2025 20.9705 16.0962 20.7524 15.9038C20.633 15.7999 20.5353 15.6733 20.4652 15.5313C20.395 15.3894 20.3537 15.2349 20.3437 15.0769C20.3337 14.9189 20.3551 14.7604 20.4068 14.6108C20.4585 14.4611 20.5394 14.3232 20.6447 14.205C21.1076 13.6875 21.4104 13.0469 21.5166 12.3608C21.6227 11.6747 21.5275 10.9725 21.2426 10.3394C20.9577 9.70627 20.4953 9.16936 19.9114 8.79375C19.3275 8.41814 18.6472 8.21994 17.9529 8.22317H17.8811C17.6013 8.22882 17.3283 8.13613 17.1097 7.96125C16.8911 7.78638 16.7407 7.54038 16.6848 7.26608C16.4651 6.18429 15.8782 5.21171 15.0235 4.51312C14.1688 3.81454 13.0989 3.43292 11.995 3.43292C10.8912 3.43292 9.82125 3.81454 8.96655 4.51312C8.11186 5.21171 7.52496 6.18429 7.30529 7.26608C7.24936 7.54038 7.09901 7.78638 6.88041 7.96125C6.66181 8.13613 6.38881 8.22882 6.10892 8.22317H5.98929C5.29502 8.21994 4.61472 8.41814 4.03083 8.79375C3.44694 9.16936 2.98452 9.70627 2.69962 10.3394C2.41471 10.9725 2.31955 11.6747 2.42566 12.3608C2.53178 13.0469 2.83461 13.6875 3.29747 14.205C3.434 14.3159 3.54441 14.4555 3.62083 14.6139C3.69726 14.7723 3.73781 14.9456 3.73962 15.1214C3.74142 15.2973 3.70443 15.4714 3.63127 15.6314C3.55812 15.7913 3.4506 15.9331 3.31637 16.0468C3.18214 16.1604 3.02451 16.2431 2.8547 16.2889C2.68488 16.3346 2.50706 16.3424 2.3339 16.3116C2.16074 16.2808 1.9965 16.2122 1.85287 16.1107C1.70924 16.0092 1.58975 15.8773 1.50292 15.7244C0.784082 14.9124 0.299507 13.9202 0.101033 12.8541C-0.0974405 11.7879 -0.00234492 10.6879 0.376147 9.6716C0.75464 8.65532 1.40229 7.76105 2.24981 7.08446C3.09734 6.40787 4.11285 5.97441 5.18773 5.83044C5.67589 4.41999 6.59157 3.19679 7.80736 2.33103C9.02315 1.46528 10.4786 1.00003 11.9711 1.00003C13.4636 1.00003 14.9191 1.46528 16.1349 2.33103Z" fill="#747B85"/>
<path d="M13.1675 18.5598L14.7348 17.0524C14.8448 16.93 14.9789 16.8316 15.1287 16.7635C15.2785 16.6953 15.4408 16.6587 15.6054 16.6561C15.7699 16.6535 15.9333 16.6849 16.0851 16.7483C16.237 16.8117 16.3742 16.9058 16.4881 17.0246C16.602 17.1434 16.6901 17.2845 16.747 17.4389C16.8038 17.5933 16.8282 17.7579 16.8186 17.9222C16.809 18.0865 16.7656 18.247 16.6911 18.3938C16.6167 18.5406 16.5127 18.6704 16.3857 18.7751L12.7967 22.2446C12.5749 22.4583 12.2792 22.5783 11.9712 22.5796C11.8137 22.5805 11.6576 22.5503 11.5119 22.4908C11.3661 22.4312 11.2335 22.3435 11.1217 22.2326L7.53265 18.6435C7.42111 18.532 7.33262 18.3996 7.27225 18.2538C7.21188 18.1081 7.18081 17.9519 7.18081 17.7941C7.18081 17.6364 7.21188 17.4801 7.27225 17.3344C7.33262 17.1887 7.42111 17.0562 7.53265 16.9447C7.6442 16.8331 7.77663 16.7447 7.92237 16.6843C8.06811 16.6239 8.22432 16.5928 8.38207 16.5928C8.53982 16.5928 8.69603 16.6239 8.84177 16.6843C8.98752 16.7447 9.11994 16.8331 9.23149 16.9447L10.7748 18.5V11.8123C10.7748 11.495 10.9008 11.1907 11.1252 10.9663C11.3496 10.742 11.6539 10.6159 11.9712 10.6159C12.2885 10.6159 12.5928 10.742 12.8171 10.9663C13.0415 11.1907 13.1675 11.495 13.1675 11.8123V18.5598Z" fill="#747B85"/>
</g>
<defs>
<clipPath id="clip0">
<rect width="24" height="24" fill="white"/>
</clipPath>
</defs>
</svg>
