<svg width="16" height="16" viewBox="0 0 16 16" fill="none" xmlns="http://www.w3.org/2000/svg">
<path d="M8.0213 12.6667C8.28403 12.6671 8.54427 12.6156 8.78705 12.5152C9.02982 12.4147 9.25036 12.2673 9.43597 12.0813L12.0486 9.46667L11.106 8.52667L8.68397 10.9493L8.66663 0H7.3333L7.35063 10.9387L4.9373 8.52533L3.99463 9.46667L6.6073 12.0793C6.79269 12.2655 7.01304 12.4133 7.2557 12.5141C7.49836 12.6149 7.75854 12.6667 8.0213 12.6667Z" fill="#4F4C4A"/>
<path d="M14.6667 10.666V13.9994C14.6667 14.1762 14.5964 14.3457 14.4714 14.4708C14.3464 14.5958 14.1768 14.666 14 14.666H2C1.82319 14.666 1.65362 14.5958 1.5286 14.4708C1.40357 14.3457 1.33333 14.1762 1.33333 13.9994V10.666H0V13.9994C0 14.5298 0.210714 15.0385 0.585786 15.4136C0.960859 15.7886 1.46957 15.9994 2 15.9994H14C14.5304 15.9994 15.0391 15.7886 15.4142 15.4136C15.7893 15.0385 16 14.5298 16 13.9994V10.666H14.6667Z" fill="#4F4C4A"/>
</svg>
