<svg width="18" height="16" viewBox="0 0 18 16" fill="none" xmlns="http://www.w3.org/2000/svg">
<path fill-rule="evenodd" clip-rule="evenodd" d="M3.19717 0.664212C2.86755 0.29738 2.30297 0.267212 1.93613 0.596831C1.5693 0.92645 1.53914 1.49104 1.86875 1.85787L3.52956 3.70617C1.69371 5.04792 0.555459 6.81365 0.1148 7.57341C0.0395934 7.70367 0 7.85143 0 8.00185C0 8.15226 0.0395934 8.30002 0.1148 8.43029C0.654636 9.36429 3.54233 14 8.58936 14H8.80358C10.027 13.969 11.118 13.6685 12.0759 13.2174L13.7752 15.1085C14.1048 15.4753 14.6694 15.5055 15.0362 15.1759C15.403 14.8462 15.4332 14.2817 15.1036 13.9148L13.6373 12.283C15.4631 10.9431 16.5956 9.18731 17.0296 8.43029C17.1049 8.30002 17.1444 8.15226 17.1444 8.00185C17.1444 7.85143 17.1049 7.70367 17.0296 7.57341C16.4812 6.62227 13.465 1.84944 8.34087 2.00367C7.12764 2.03439 6.04529 2.33023 5.09382 2.775L3.19717 0.664212ZM4.69457 5.00272C3.33716 5.95283 2.39578 7.2128 1.90568 8.00185C2.65974 9.21005 5.06758 12.3719 8.76074 12.2863C9.52268 12.2672 10.2245 12.1131 10.8649 11.8697L9.83406 10.7224C9.7964 10.7399 9.75833 10.7566 9.71987 10.7725C9.17185 10.9995 8.56884 11.0589 7.98707 10.9432C7.40531 10.8275 6.87092 10.5419 6.45149 10.1224C6.03206 9.70299 5.74643 9.16861 5.63071 8.58684C5.51499 8.00507 5.57438 7.40206 5.80137 6.85405C5.85839 6.7164 5.92533 6.58378 6.00143 6.45712L4.69457 5.00272ZM7.33534 5.26957L6.31607 4.13524C6.95912 3.89114 7.66331 3.73652 8.42655 3.71744C12.1026 3.62318 14.519 6.79364 15.2816 8.00185C14.7769 8.79081 13.8377 10.0506 12.4851 11.0007L11.157 9.52268C11.4277 9.06262 11.5713 8.53762 11.5713 8.00175C11.5713 7.20634 11.2553 6.44351 10.6928 5.88107C10.1304 5.31864 9.36757 5.00266 8.57217 5.00266C8.14373 5.00266 7.72224 5.09443 7.33534 5.26957ZM7.29147 7.8928C7.2741 8.09695 7.30575 8.30305 7.38468 8.49362C7.48197 8.72848 7.64671 8.92922 7.85808 9.07045C8.06164 9.20647 8.29965 9.28141 8.54402 9.28676L7.29147 7.8928ZM9.85545 8.0742L8.63688 6.71805C8.78295 6.72542 8.92748 6.7577 9.06404 6.81426C9.2989 6.91155 9.49964 7.07629 9.64087 7.28766C9.78211 7.49903 9.85749 7.74753 9.85749 8.00175C9.85749 8.02598 9.8568 8.05013 9.85545 8.0742Z" fill="#747B85"/>
</svg>
