<svg width="16" height="16" viewBox="0 0 16 16" fill="none" xmlns="http://www.w3.org/2000/svg">
<path fill-rule="evenodd" clip-rule="evenodd" d="M0 4.66732C0 2.82637 1.49238 1.33398 3.33333 1.33398H12.6667C14.5076 1.33398 16 2.82637 16 4.66732V11.334C16 13.1749 14.5076 14.6673 12.6667 14.6673H3.33333C1.49238 14.6673 0 13.1749 0 11.334V4.66732ZM3.33333 2.66732C2.22876 2.66732 1.33333 3.56275 1.33333 4.66732V8.66732H14.6667V4.66732C14.6667 3.56275 13.7712 2.66732 12.6667 2.66732H3.33333ZM14.6667 10.0007H1.33333V11.334C1.33333 12.4386 2.22876 13.334 3.33333 13.334H12.6667C13.7712 13.334 14.6667 12.4386 14.6667 11.334V10.0007Z" fill="#4F4C4A"/>
</svg>
