<svg width="18" height="12" viewBox="0 0 18 12" fill="none" xmlns="http://www.w3.org/2000/svg">
<path fill-rule="evenodd" clip-rule="evenodd" d="M6.90596 3.50808C7.39916 3.17854 7.979 3.00264 8.57217 3.00264C9.36757 3.00264 10.1304 3.31862 10.6928 3.88105C11.2553 4.44349 11.5713 5.20632 11.5713 6.00173C11.5713 6.59489 11.3954 7.17473 11.0658 7.66793C10.7363 8.16113 10.2679 8.54553 9.71987 8.77252C9.17185 8.99952 8.56884 9.05891 7.98707 8.94319C7.40531 8.82747 6.87092 8.54183 6.45149 8.1224C6.03206 7.70297 5.74643 7.16859 5.63071 6.58682C5.51499 6.00506 5.57438 5.40204 5.80137 4.85403C6.02837 4.30602 6.41277 3.83762 6.90596 3.50808ZM7.85808 7.07044C8.06945 7.21167 8.31795 7.28705 8.57217 7.28705C8.91305 7.28705 9.23998 7.15163 9.48103 6.91059C9.72207 6.66954 9.85749 6.34262 9.85749 6.00173C9.85749 5.74752 9.78211 5.49901 9.64087 5.28764C9.49964 5.07627 9.2989 4.91153 9.06404 4.81425C8.82918 4.71696 8.57074 4.69151 8.32141 4.7411C8.07208 4.7907 7.84306 4.91311 7.66331 5.09287C7.48355 5.27262 7.36114 5.50165 7.31154 5.75097C7.26195 6.0003 7.2874 6.25874 7.38468 6.4936C7.48197 6.72846 7.64671 6.9292 7.85808 7.07044Z" fill="#747B85"/>
<path fill-rule="evenodd" clip-rule="evenodd" d="M8.34087 0.00365552C13.465 -0.150583 16.4812 4.62225 17.0296 5.57339C17.1049 5.70365 17.1444 5.85141 17.1444 6.00183C17.1444 6.15224 17.1049 6.30001 17.0296 6.43027C16.2927 7.71559 13.5421 11.88 8.80358 12H8.58936C3.54233 12 0.654636 7.36427 0.1148 6.43027C0.0395934 6.30001 0 6.15224 0 6.00183C0 5.85141 0.0395934 5.70365 0.1148 5.57339C0.860288 4.28806 3.60231 0.123619 8.34087 0.00365552ZM1.90568 6.00183C2.65974 7.21003 5.06758 10.3719 8.76074 10.2862C12.1883 10.2005 14.399 7.38141 15.2816 6.00183C14.519 4.79362 12.1026 1.62316 8.42655 1.71742C4.99903 1.80311 2.76256 4.62225 1.90568 6.00183Z" fill="#747B85"/>
</svg>
