<svg width="18" height="22" viewBox="0 0 18 22" fill="none" xmlns="http://www.w3.org/2000/svg">
<path fill-rule="evenodd" clip-rule="evenodd" d="M3 0C2.20435 0 1.44129 0.31607 0.87868 0.87868C0.31607 1.44129 0 2.20435 0 3V19C0 19.7956 0.31607 20.5587 0.87868 21.1213C1.44129 21.6839 2.20435 22 3 22H15C15.7957 22 16.5587 21.6839 17.1213 21.1213C17.6839 20.5587 18 19.7956 18 19V7.34188C18 6.94222 17.92 6.54659 17.765 6.17824C17.6099 5.80997 17.3827 5.47621 17.097 5.19688L12.6571 0.855C12.0967 0.306987 11.3439 9.75728e-05 10.56 0H3ZM2.29289 2.29289C2.48043 2.10536 2.73478 2 3 2H10V5.00001C10 5.79566 10.3161 6.55872 10.8787 7.12133C11.4413 7.68394 12.2044 8.00001 13 8.00001H16V19C16 19.2652 15.8946 19.5196 15.7071 19.7071C15.5196 19.8946 15.2652 20 15 20H3C2.73478 20 2.48043 19.8946 2.29289 19.7071C2.10536 19.5196 2 19.2652 2 19V3C2 2.73478 2.10536 2.48043 2.29289 2.29289ZM15.0577 6.00001L12 3.0098V5.00001C12 5.26522 12.1054 5.51958 12.2929 5.70712C12.4805 5.89465 12.7348 6.00001 13 6.00001H15.0577ZM5.99997 11C5.44768 11 4.99997 11.4477 4.99997 12C4.99997 12.5523 5.44768 13 5.99997 13H12C12.5523 13 13 12.5523 13 12C13 11.4477 12.5523 11 12 11H5.99997ZM4.99997 16C4.99997 15.4477 5.44768 15 5.99997 15H8.99997C9.55225 15 9.99997 15.4477 9.99997 16C9.99997 16.5523 9.55225 17 8.99997 17H5.99997C5.44768 17 4.99997 16.5523 4.99997 16Z" fill="#2A63B5"/>
</svg>
