<svg width="20" height="20" viewBox="0 0 20 20" fill="none" xmlns="http://www.w3.org/2000/svg">
<g clip-path="url(#clip0_511_44145)">
<path d="M0 2.5V9.16667H9.16667V0H2.5C1.83696 0 1.20107 0.263392 0.732233 0.732233C0.263392 1.20107 0 1.83696 0 2.5H0ZM7.5 7.5H1.66667V2.5C1.66667 2.27899 1.75446 2.06702 1.91074 1.91074C2.06702 1.75446 2.27899 1.66667 2.5 1.66667H7.5V7.5Z" fill="#232221"/>
<path d="M0 17.5026C0 18.1657 0.263392 18.8015 0.732233 19.2704C1.20107 19.7392 1.83696 20.0026 2.5 20.0026H9.16667V10.8359H0V17.5026ZM1.66667 12.5026H7.5V18.3359H2.5C2.27899 18.3359 2.06703 18.2481 1.91074 18.0919C1.75446 17.9356 1.66667 17.7236 1.66667 17.5026V12.5026Z" fill="#4F4C4A"/>
<path d="M16.6668 17.8482V2.15572L18.8201 4.30572L20.0001 3.12655L17.601 0.730717C17.1322 0.262804 16.497 0 15.8347 0C15.1724 0 14.5372 0.262804 14.0685 0.730717L11.6726 3.12238L12.8501 4.30155L15.0001 2.15238V17.8474L12.846 15.6957L11.6685 16.8749L14.0676 19.2707C14.5363 19.7386 15.1716 20.0014 15.8339 20.0014C16.4962 20.0014 17.1314 19.7386 17.6001 19.2707L20.0001 16.8791L18.8226 15.6999L16.6668 17.8482Z" fill="#4F4C4A"/>
</g>
<defs>
<clipPath id="clip0_511_44145">
<rect width="20" height="20" fill="white"/>
</clipPath>
</defs>
</svg>
