<svg width="16" height="15" viewBox="0 0 16 15" fill="none" xmlns="http://www.w3.org/2000/svg">
<path fill-rule="evenodd" clip-rule="evenodd" d="M0.0675603 0.42118C0.18673 0.164333 0.444136 0 0.727282 0H15.2727C15.5559 0 15.8133 0.164333 15.9324 0.42118C16.0516 0.678026 16.0109 0.980688 15.828 1.19689L10.1818 7.87355V13.8182C10.1818 14.0702 10.0513 14.3043 9.83689 14.4368C9.62248 14.5693 9.35474 14.5814 9.1293 14.4687L6.22021 13.0141C5.97382 12.8909 5.81818 12.6391 5.81818 12.3636V7.87355L0.171959 1.19689C-0.0108757 0.980688 -0.0516092 0.678026 0.0675603 0.42118ZM2.29477 1.45454L7.10078 7.13765C7.21181 7.26894 7.27273 7.43532 7.27273 7.60726V11.9141L8.72727 12.6414V7.60726C8.72727 7.43532 8.78819 7.26894 8.89922 7.13765L13.7052 1.45454H2.29477Z" fill="#747B85"/>
</svg>
