<svg width="24" height="24" viewBox="0 0 24 24" fill="none" xmlns="http://www.w3.org/2000/svg">
<g clip-path="url(#clip0)">
<path fill-rule="evenodd" clip-rule="evenodd" d="M14.1029 0.408471L22.6577 4.30898C23.2715 4.58785 23.9994 5.1442 24.0011 6.05074C24.0028 6.95829 23.2765 7.51626 22.6643 7.79582L19.931 9.04239L22.6622 10.2669C23.2747 10.5453 24.0061 11.1028 24.0039 12.0133C24.0018 12.9219 23.2703 13.477 22.6561 13.7551L22.6545 13.7557L20.0241 14.9552L22.673 16.23C23.2841 16.5104 24.0047 17.066 24.0047 17.969C24.0047 18.877 23.2762 19.4337 22.663 19.7126L14.1842 23.5796C13.533 23.8761 12.7408 24.0002 12.0052 24.0002C11.2696 24.0002 10.4779 23.8764 9.82681 23.5799L1.34819 19.713C0.735047 19.4341 0.0057373 18.877 0.0057373 17.969C0.0057373 17.0606 0.734888 16.5038 1.34819 16.225L1.35258 16.223L4.07551 15.0012L1.34152 13.7544C0.728454 13.4755 0 12.9187 0 12.0109C0 11.1025 0.729151 10.5457 1.34245 10.2669L1.3468 10.265L4.07569 9.04027L1.34867 7.79653C0.735867 7.51779 0.00622559 6.96094 0.00622559 6.05285C0.00622559 5.14476 0.735116 4.58825 1.34793 4.30952L9.89815 0.408471C10.529 0.120278 11.2926 0 12.0005 0C12.7084 0 13.4721 0.120354 14.1029 0.408471ZM6.49833 10.1452L2.33977 12.0115L10.6503 15.8012C10.9667 15.9454 11.4551 16.042 11.9995 16.042C12.5439 16.042 13.0322 15.9455 13.3486 15.8013L21.6619 12.0103L17.5076 10.1477L14.1847 11.6632C13.5334 11.9601 12.7414 12.0842 12.0057 12.0842C11.2699 12.0842 10.4781 11.9602 9.82685 11.6633L6.49833 10.1452ZM17.1608 8.10763C17.1093 8.12622 17.0593 8.149 17.0114 8.17577L13.3547 9.84352C13.0383 9.98772 12.5501 10.0842 12.0057 10.0842C11.4613 10.0842 10.9729 9.98766 10.6565 9.84346L2.34521 6.05284L10.7296 2.22747C11.0262 2.09191 11.4858 2 12.0005 2C12.5153 2 12.9757 2.09229 13.2723 2.22786L21.6638 6.05391L17.1608 8.10763ZM6.49845 16.1061L2.3455 17.9696L10.6556 21.7597C10.9721 21.9038 11.4606 22.0002 12.0052 22.0002C12.5498 22.0002 13.0383 21.9038 13.3548 21.7597L21.6705 17.9671L17.656 16.0351L14.1784 17.621C13.5271 17.9179 12.7352 18.042 11.9995 18.042C11.2637 18.042 10.4719 17.9179 9.82062 17.621L6.49845 16.1061Z" fill="#747B85" />
</g>
<defs>
<clipPath id="clip0">
<rect width="24" height="24" fill="white"/>
</clipPath>
</defs>
</svg>
