<svg width="22" height="18" viewBox="0 0 22 18" fill="none" xmlns="http://www.w3.org/2000/svg">
<path d="M4.40983 0H0.664729C0.296475 0 2.13348e-05 0.285468 2.13348e-05 0.64004L0 4.24623C0 4.60121 0.296474 4.88668 0.664708 4.88668H4.40983C4.77802 4.88668 5.07445 4.60121 5.07445 4.24623V0.64004C5.07445 0.285468 4.77802 0 4.40983 0Z" fill="#747B85"/>
<path d="M9.18341 1.23401C8.59366 1.23401 8.11557 1.69441 8.11557 2.26235C8.11557 2.83029 8.59366 3.2907 9.18341 3.2907H20.0625C20.6522 3.2907 21.1303 2.83029 21.1303 2.26235C21.1303 1.69441 20.6522 1.23401 20.0625 1.23401H9.18341Z" fill="#747B85"/>
<path d="M4.40983 6.53198H0.664729C0.296475 6.53198 2.13348e-05 6.81745 2.13348e-05 7.17202L0 10.7782C0 11.1332 0.296474 11.4187 0.664708 11.4187H4.40983C4.77802 11.4187 5.07445 11.1332 5.07445 10.7782V7.17202C5.07445 6.81745 4.77802 6.53198 4.40983 6.53198Z" fill="#747B85"/>
<path d="M9.18341 7.76599C8.59366 7.76599 8.11557 8.22639 8.11557 8.79433C8.11557 9.36227 8.59366 9.82267 9.18341 9.82267H18.1061C18.6959 9.82267 19.1739 9.36227 19.1739 8.79433C19.1739 8.22639 18.6959 7.76599 18.1061 7.76599H9.18341Z" fill="#747B85"/>
<path d="M0.671432 13.064H4.4543C4.8262 13.064 5.12562 13.3523 5.12562 13.7105V17.3531C5.12562 17.7116 4.8262 18 4.4543 18H0.671411C0.299464 18 0 17.7116 0 17.3531L2.155e-05 13.7105C2.155e-05 13.3523 0.299464 13.064 0.671432 13.064Z" fill="#747B85"/>
<path d="M8.11557 15.3263C8.11557 14.7584 8.59366 14.298 9.18341 14.298H20.9322C21.5219 14.298 22 14.7584 22 15.3263C22 15.8942 21.5219 16.3547 20.9322 16.3547H9.18341C8.59366 16.3547 8.11557 15.8942 8.11557 15.3263Z" fill="#747B85"/>
</svg>
