<svg width="23" height="23" viewBox="0 0 23 23" fill="none" xmlns="http://www.w3.org/2000/svg">
<path d="M11.5 7.5C9.29 7.5 7.5 9.29 7.5 11.5C7.5 13.71 9.29 15.5 11.5 15.5C13.71 15.5 15.5 13.71 15.5 11.5C15.5 9.29 13.71 7.5 11.5 7.5ZM20.44 10.5C20.2135 8.47212 19.3042 6.58154 17.8613 5.13869C16.4185 3.69585 14.5279 2.78651 12.5 2.56V1.5C12.5 0.95 12.05 0.5 11.5 0.5C10.95 0.5 10.5 0.95 10.5 1.5V2.56C8.47212 2.78651 6.58154 3.69585 5.13869 5.13869C3.69585 6.58154 2.78651 8.47212 2.56 10.5H1.5C0.95 10.5 0.5 10.95 0.5 11.5C0.5 12.05 0.95 12.5 1.5 12.5H2.56C2.78651 14.5279 3.69585 16.4185 5.13869 17.8613C6.58154 19.3042 8.47212 20.2135 10.5 20.44V21.5C10.5 22.05 10.95 22.5 11.5 22.5C12.05 22.5 12.5 22.05 12.5 21.5V20.44C14.5279 20.2135 16.4185 19.3042 17.8613 17.8613C19.3042 16.4185 20.2135 14.5279 20.44 12.5H21.5C22.05 12.5 22.5 12.05 22.5 11.5C22.5 10.95 22.05 10.5 21.5 10.5H20.44ZM11.5 18.5C7.63 18.5 4.5 15.37 4.5 11.5C4.5 7.63 7.63 4.5 11.5 4.5C15.37 4.5 18.5 7.63 18.5 11.5C18.5 15.37 15.37 18.5 11.5 18.5Z" fill="#747B85"/>
</svg>
