<svg width="16" height="16" viewBox="0 0 16 16" fill="none" xmlns="http://www.w3.org/2000/svg">
<g clip-path="url(#clip0_724_4026)">
<path d="M12.6667 0H3.33333C2.4496 0.00105857 1.60237 0.352588 0.97748 0.97748C0.352588 1.60237 0.00105857 2.4496 0 3.33333L0 12.6667C0.00105857 13.5504 0.352588 14.3976 0.97748 15.0225C1.60237 15.6474 2.4496 15.9989 3.33333 16H12.6667C13.5504 15.9989 14.3976 15.6474 15.0225 15.0225C15.6474 14.3976 15.9989 13.5504 16 12.6667V3.33333C15.9989 2.4496 15.6474 1.60237 15.0225 0.97748C14.3976 0.352588 13.5504 0.00105857 12.6667 0V0ZM8.66667 14.6667V13.6093L13.6093 8.66667H14.6667V9.724L9.724 14.6667H8.66667ZM8.66667 8.66667H11.724L8.66667 11.724V8.66667ZM14.6667 3.33333V7.33333H8.66667V1.33333H12.6667C13.1971 1.33333 13.7058 1.54405 14.0809 1.91912C14.456 2.29419 14.6667 2.8029 14.6667 3.33333ZM1.33333 7.33333V6.276L6.276 1.33333H7.33333V2.39067L2.39067 7.33333H1.33333ZM7.33333 4.276V7.33333H4.276L7.33333 4.276ZM3.33333 1.33333H4.39067L1.33333 4.39067V3.33333C1.33333 2.8029 1.54405 2.29419 1.91912 1.91912C2.29419 1.54405 2.8029 1.33333 3.33333 1.33333ZM1.33333 12.6667V8.66667H7.33333V14.6667H3.33333C2.8029 14.6667 2.29419 14.456 1.91912 14.0809C1.54405 13.7058 1.33333 13.1971 1.33333 12.6667ZM12.6667 14.6667H11.6093L14.6667 11.6093V12.6667C14.6667 13.1971 14.456 13.7058 14.0809 14.0809C13.7058 14.456 13.1971 14.6667 12.6667 14.6667Z" fill="#4F4C4A"/>
</g>
<defs>
<clipPath id="clip0_724_4026">
<rect width="16" height="16" fill="white"/>
</clipPath>
</defs>
</svg>
