<svg width="16" height="16" viewBox="0 0 16 16" fill="none" xmlns="http://www.w3.org/2000/svg">
<path d="M12.1905 2.99926C12.6113 2.99926 12.9524 3.34037 12.9524 3.76116V3.76878C12.9524 4.18957 12.6113 4.53068 12.1905 4.53068C11.7697 4.53068 11.4286 4.18957 11.4286 3.76878V3.76116C11.4286 3.34037 11.7697 2.99926 12.1905 2.99926Z" fill="#747B85"/>
<path fill-rule="evenodd" clip-rule="evenodd" d="M10.3008 0.501729C10.8763 0.172939 11.5277 0 12.1905 0C12.8533 0 13.5047 0.172939 14.0802 0.501729C14.6557 0.830519 15.1355 1.30378 15.4721 1.87476C15.8087 2.44573 15.9906 3.09466 15.9996 3.75742C16.0087 4.42018 15.8447 5.07383 15.5238 5.6538C15.5109 5.67722 15.4967 5.69994 15.4813 5.72187L12.8147 9.53139C12.6721 9.73507 12.4391 9.85637 12.1905 9.85637C11.9419 9.85637 11.7089 9.73507 11.5663 9.53139L8.89963 5.72187C8.88428 5.69994 8.8701 5.67722 8.85714 5.6538C8.53626 5.07383 8.37224 4.42018 8.38131 3.75742C8.39038 3.09466 8.57221 2.44573 8.90884 1.87476C9.24547 1.30378 9.72525 0.830519 10.3008 0.501729ZM12.1905 1.52381C11.7928 1.52381 11.402 1.62757 11.0567 1.82485C10.7113 2.02212 10.4235 2.30608 10.2215 2.64866C10.0195 2.99125 9.91042 3.3806 9.90498 3.77826C9.89971 4.16348 9.99189 4.54357 10.1727 4.88331L12.1905 7.76587L14.2083 4.88331C14.3891 4.54357 14.4812 4.16348 14.476 3.77826C14.4705 3.3806 14.3614 2.99125 14.1595 2.64866C13.9575 2.30608 13.6696 2.02212 13.3243 1.82485C12.979 1.62757 12.5882 1.52381 12.1905 1.52381Z" fill="#747B85"/>
<path fill-rule="evenodd" clip-rule="evenodd" d="M5.33334 1.47545C5.4613 1.47545 5.5819 1.50699 5.68777 1.56274L6.81693 2.12731C7.19329 2.31549 7.34584 2.77315 7.15766 3.14951C6.96948 3.52588 6.51182 3.67843 6.13546 3.49025L6.09524 3.47014V11.6712L9.14286 13.195V10.6183C9.14286 10.1975 9.48397 9.8564 9.90476 9.8564C10.3256 9.8564 10.6667 10.1975 10.6667 10.6183V13.195L13.7143 11.6712V10.6183C13.7143 10.1975 14.0554 9.8564 14.4762 9.8564C14.897 9.8564 15.2381 10.1975 15.2381 10.6183V12.1421C15.2381 12.4307 15.075 12.6945 14.8169 12.8236L10.2592 15.1024C10.1594 15.155 10.0465 15.186 9.92665 15.1894C9.91935 15.1896 9.91206 15.1897 9.90476 15.1897C9.89473 15.1897 9.8847 15.1895 9.87467 15.1891C9.75788 15.1846 9.64783 15.1538 9.55029 15.1024L5.33333 12.9939L1.10264 15.1093C0.866457 15.2274 0.58597 15.2148 0.361348 15.0759C0.136726 14.9371 0 14.6919 0 14.4278V4.52307C0 4.23448 0.163049 3.97066 0.421171 3.8416L4.97889 1.56274C5.08477 1.50699 5.20537 1.47545 5.33334 1.47545ZM4.57143 11.6712L1.52381 13.195V4.99395L4.57143 3.47014V11.6712Z" fill="#747B85"/>
</svg>
