<svg width="21" height="20" viewBox="0 0 21 20" fill="none" xmlns="http://www.w3.org/2000/svg">
<path fill-rule="evenodd" clip-rule="evenodd" d="M7.16699 4C5.78628 4 4.66699 5.11929 4.66699 6.5C4.66699 7.88071 5.78628 9 7.16699 9C8.5477 9 9.66699 7.88071 9.66699 6.5C9.66699 5.11929 8.5477 4 7.16699 4ZM6.66699 6.5C6.66699 6.22386 6.89085 6 7.16699 6C7.44313 6 7.66699 6.22386 7.66699 6.5C7.66699 6.77614 7.44313 7 7.16699 7C6.89085 7 6.66699 6.77614 6.66699 6.5Z" fill="#2A63B5"/>
<path fill-rule="evenodd" clip-rule="evenodd" d="M20.667 17C20.667 18.6569 19.3238 20 17.667 20H3.6658C2.00949 19.9994 0.666992 18.6565 0.666992 17V3C0.666992 1.34315 2.01014 0 3.66699 0H17.667C19.3238 0 20.667 1.34315 20.667 3V17ZM3.66699 2C3.11471 2 2.66699 2.44772 2.66699 3V17C2.66699 17.4288 2.93689 17.7946 3.31608 17.9367L13.9599 7.29289C14.3504 6.90237 14.9836 6.90237 15.3741 7.29289L18.667 10.5858V3C18.667 2.44772 18.2193 2 17.667 2H3.66699ZM18.667 17V13.4142L14.667 9.41421L6.08121 18H17.667C18.2193 18 18.667 17.5523 18.667 17Z" fill="#2A63B5"/>
</svg>
