<svg width="23" height="23" viewBox="0 0 23 23" fill="none" xmlns="http://www.w3.org/2000/svg">
<path fill-rule="evenodd" clip-rule="evenodd" d="M11.407 4.8125C10.4816 4.8125 9.48137 5.02682 8.68378 5.58117C7.87028 6.14657 7.29846 7.04591 7.22635 8.33338L7.22612 8.33881C7.22192 8.43772 7.23801 8.53644 7.27338 8.6289L7.34521 8.75575C7.34333 8.80015 7.40459 8.84447 7.42047 8.88598C7.43635 8.9275 7.46055 8.96532 7.49159 8.99713C7.52262 9.02894 7.55984 9.05407 7.60095 9.07096C7.64206 9.08786 7.68618 9.09616 7.73062 9.09537H7.84131H7.96001H9.09151C9.51445 9.09537 9.80678 8.7575 9.85368 8.40499C9.90528 8.03032 10.0551 7.73371 10.2803 7.53113C10.5035 7.33034 10.8335 7.19238 11.3025 7.19238C11.7143 7.19238 12.0704 7.29618 12.314 7.48568C12.5431 7.66397 12.7093 7.94514 12.7093 8.39838C12.7093 8.74078 12.6137 8.97153 12.439 9.18856C12.2467 9.42743 11.96 9.64976 11.5446 9.9618C10.5881 10.6573 9.7183 11.5512 9.77649 13.0264L9.78056 13.3204C9.78368 13.5156 9.86341 13.7017 10.0026 13.8386C10.1417 13.9755 10.3291 14.0523 10.5243 14.0522H11.6394C11.8366 14.0522 12.0258 13.9739 12.1653 13.8344C12.3048 13.6949 12.3831 13.5058 12.3831 13.3085V13.1641C12.3831 12.731 12.4626 12.5051 12.6164 12.3019C12.796 12.0647 13.0899 11.8368 13.614 11.4393C14.4563 10.7989 15.4824 9.98625 15.4824 8.29387C15.4824 7.12725 14.983 6.23936 14.2055 5.65444C13.4409 5.07919 12.4309 4.8125 11.407 4.8125Z" fill="#747B85"/>
<path d="M11.154 14.5874C10.1596 14.5874 9.36663 15.2716 9.36663 16.2799C9.36663 17.2642 10.1619 17.9545 11.1554 17.9545C12.1786 17.9545 12.9689 17.2672 12.9689 16.2799C12.9689 15.7937 12.7814 15.3618 12.4457 15.0541C12.1125 14.7488 11.6577 14.5874 11.154 14.5874Z" fill="#747B85"/>
<path fill-rule="evenodd" clip-rule="evenodd" d="M11.4 0C8.37653 0 5.4769 1.20107 3.33898 3.33898C1.20107 5.4769 0 8.37653 0 11.4C0 14.4235 1.20107 17.3231 3.33898 19.461C5.4769 21.5989 8.37653 22.8 11.4 22.8C14.4235 22.8 17.3231 21.5989 19.461 19.461C21.5989 17.3231 22.8 14.4235 22.8 11.4C22.8 8.37653 21.5989 5.4769 19.461 3.33898C17.3231 1.20107 14.4235 0 11.4 0ZM4.87694 4.87694C6.60696 3.14692 8.95338 2.175 11.4 2.175C13.8466 2.175 16.193 3.14692 17.9231 4.87694C19.6531 6.60696 20.625 8.95338 20.625 11.4C20.625 13.8466 19.6531 16.193 17.9231 17.9231C16.193 19.6531 13.8466 20.625 11.4 20.625C8.95338 20.625 6.60696 19.6531 4.87694 17.9231C3.14692 16.193 2.175 13.8466 2.175 11.4C2.175 8.95338 3.14692 6.60696 4.87694 4.87694Z" fill="#747B85"/>
</svg>
