<svg width="25" height="25" viewBox="0 0 25 25" fill="none" xmlns="http://www.w3.org/2000/svg">
<path d="M7.2002 8.99995V7.19995H9.0002M12.4002 7.19995H14.2002V8.99995M7.2002 12.4V14.2H9.0002M14.2002 12.4V14.2H12.4002" stroke="#747B85" stroke-width="2" stroke-linecap="round" stroke-linejoin="round"/>
<path d="M24.1322 22.091L18.6915 16.6503C20.0014 14.9065 20.7085 12.784 20.7061 10.603C20.7061 5.03226 16.1738 0.5 10.603 0.5C5.03226 0.5 0.5 5.03226 0.5 10.603C0.5 16.1738 5.03226 20.7061 10.603 20.7061C12.784 20.7085 14.9065 20.0014 16.6503 18.6915L22.091 24.1322C22.3664 24.3783 22.7256 24.5098 23.0948 24.4994C23.4641 24.4891 23.8154 24.3378 24.0766 24.0766C24.3378 23.8154 24.4891 23.4641 24.4994 23.0948C24.5098 22.7256 24.3783 22.3664 24.1322 22.091ZM3.38658 10.603C3.38658 9.17576 3.80982 7.78053 4.60277 6.59379C5.39573 5.40705 6.52279 4.4821 7.84142 3.9359C9.16006 3.38971 10.611 3.2468 12.0109 3.52525C13.4108 3.80369 14.6966 4.49099 15.7058 5.50023C16.7151 6.50947 17.4024 7.79532 17.6808 9.19518C17.9593 10.595 17.8164 12.046 17.2702 13.3647C16.724 14.6833 15.799 15.8103 14.6123 16.6033C13.4255 17.3963 12.0303 17.8195 10.603 17.8195C8.68982 17.8172 6.85562 17.0562 5.50277 15.7033C4.14992 14.3505 3.38888 12.5163 3.38658 10.603Z" fill="#747B85"/>
</svg>
