<svg width="32" height="32" viewBox="0 0 32 32" fill="none" xmlns="http://www.w3.org/2000/svg">
<path d="M11.9999 13.3334H2.66659C2.31296 13.3334 1.97382 13.1929 1.72378 12.9429C1.47373 12.6928 1.33325 12.3537 1.33325 12V2.66671C1.33325 2.31309 1.47373 1.97395 1.72378 1.7239C1.97382 1.47385 2.31296 1.33337 2.66659 1.33337H11.9999C12.3535 1.33337 12.6927 1.47385 12.9427 1.7239C13.1928 1.97395 13.3333 2.31309 13.3333 2.66671V12C13.3333 12.3537 13.1928 12.6928 12.9427 12.9429C12.6927 13.1929 12.3535 13.3334 11.9999 13.3334Z" fill="#2A63B5"/>
<path d="M11.9999 30.6667H2.66659C2.31296 30.6667 1.97382 30.5263 1.72378 30.2762C1.47373 30.0262 1.33325 29.687 1.33325 29.3334V20.0001C1.33325 19.6465 1.47373 19.3073 1.72378 19.0573C1.97382 18.8072 2.31296 18.6667 2.66659 18.6667H11.9999C12.3535 18.6667 12.6927 18.8072 12.9427 19.0573C13.1928 19.3073 13.3333 19.6465 13.3333 20.0001V29.3334C13.3333 29.687 13.1928 30.0262 12.9427 30.2762C12.6927 30.5263 12.3535 30.6667 11.9999 30.6667Z" fill="#2A63B5"/>
<path d="M17.3333 2.66675H30.6666V5.33341H17.3333V2.66675Z" fill="#E0E0E0"/>
<path d="M30.6666 20H17.3333V22.6667H30.6666V20Z" fill="#E0E0E0"/>
<path d="M30.6666 26.6667H17.3333V29.3334H30.6666V26.6667Z" fill="#E0E0E0"/>
<path d="M30.6666 9.33337H17.3333V12H30.6666V9.33337Z" fill="#E0E0E0"/>
</svg>
