<svg width="16" height="19" viewBox="0 0 16 19" fill="none" xmlns="http://www.w3.org/2000/svg">
<path d="M8.00099 1C8.73152 0.999973 9.43366 1.28174 9.96002 1.78616C10.4864 2.29058 10.796 2.97843 10.824 3.70532L10.826 3.81295H14.3879C14.5449 3.81346 14.6959 3.87388 14.8096 3.98179C14.9233 4.0897 14.9911 4.23689 14.9992 4.3931C15.0072 4.54931 14.9549 4.70265 14.8529 4.82159C14.7509 4.94053 14.6069 5.01602 14.4507 5.03255L14.3879 5.03597H13.8519L13.0152 16.0774C12.9755 16.6002 12.739 17.0889 12.3529 17.4454C11.9668 17.8019 11.4596 18 10.9331 18H5.06893C4.54236 18 4.03523 17.8019 3.64913 17.4454C3.26302 17.0889 3.02645 16.6002 2.98681 16.0774L2.14964 5.03597H1.61412C1.46209 5.03604 1.31543 4.97995 1.20253 4.87856C1.08963 4.77716 1.01852 4.63767 1.00295 4.48708L1 4.42446C1 4.10794 1.24172 3.84719 1.55124 3.81637L1.61412 3.81295H5.17603C5.17603 3.06691 5.47366 2.35142 6.00344 1.82389C6.53323 1.29636 7.25177 1 8.00099 1ZM12.6202 5.03597H3.38181L4.2121 15.9854C4.22845 16.2006 4.3258 16.4017 4.48467 16.5485C4.64354 16.6952 4.85221 16.7769 5.06893 16.777H10.9331C11.1499 16.777 11.3586 16.6954 11.5176 16.5486C11.6766 16.4019 11.774 16.2007 11.7904 15.9854L12.6207 5.03597H12.6202ZM9.59771 7.60432C9.91558 7.60432 10.1774 7.84501 10.2089 8.15321L10.2118 8.21583V13.5971C10.2126 13.7544 10.1524 13.9059 10.0439 14.0201C9.93544 14.1344 9.7869 14.2026 9.62919 14.2107C9.47148 14.2187 9.31671 14.166 9.19703 14.0634C9.07736 13.9608 9.00197 13.8162 8.98654 13.6597L8.98359 13.5971V8.21583C8.98359 7.87827 9.25871 7.60432 9.59771 7.60432ZM6.40427 7.60432C6.72214 7.60432 6.98401 7.84501 7.01545 8.15321L7.0184 8.21583V13.5971C7.01913 13.7544 6.959 13.9059 6.8505 14.0201C6.742 14.1344 6.59347 14.2026 6.43576 14.2107C6.27805 14.2187 6.12328 14.166 6.0036 14.0634C5.88392 13.9608 5.80854 13.8162 5.7931 13.6597L5.79015 13.5971V8.21583C5.79015 7.87827 6.06528 7.60432 6.40427 7.60432ZM8.00099 2.22302C7.59315 2.223 7.20075 2.37837 6.9043 2.65728C6.60785 2.93618 6.42982 3.31748 6.40673 3.72294L6.40427 3.81295H9.59771C9.59771 3.39127 9.42948 2.98687 9.13004 2.6887C8.8306 2.39053 8.42447 2.22302 8.00099 2.22302Z" fill="#AAAEB5" stroke="#AAAEB5" stroke-width="0.4"/>
</svg>
