<svg width="16" height="14" viewBox="0 0 16 14" fill="none" xmlns="http://www.w3.org/2000/svg">
<path fill-rule="evenodd" clip-rule="evenodd" d="M0 3.53333C0 1.69238 1.49238 0.200001 3.33333 0.200001H12.6667C14.5076 0.200001 16 1.69239 16 3.53333V10.2C16 12.0409 14.5076 13.5333 12.6667 13.5333H3.33333C1.49238 13.5333 0 12.0409 0 10.2V3.53333ZM3.33333 1.53333C2.22876 1.53333 1.33333 2.42876 1.33333 3.53333V10.2C1.33333 11.3046 2.22876 12.2 3.33333 12.2H12.6667C13.7712 12.2 14.6667 11.3046 14.6667 10.2V3.53333C14.6667 2.42876 13.7712 1.53333 12.6667 1.53333H3.33333Z" fill="#4F4C4A"/>
<path fill-rule="evenodd" clip-rule="evenodd" d="M4 12.2V1.53333H5.33333V12.2H4Z" fill="#4F4C4A"/>
</svg>
