<svg width="12" height="12" viewBox="0 0 12 12" fill="none" xmlns="http://www.w3.org/2000/svg">
<path d="M5.99995 2.69995C5.34727 2.69995 4.70925 2.89349 4.16657 3.2561C3.62389 3.61871 3.20092 4.1341 2.95115 4.7371C2.70138 5.34009 2.63603 6.00361 2.76336 6.64375C2.89069 7.28389 3.20499 7.87189 3.6665 8.3334C4.12801 8.79492 4.71602 9.10921 5.35615 9.23654C5.99629 9.36387 6.65981 9.29852 7.26281 9.04875C7.8658 8.79898 8.38119 8.37601 8.7438 7.83333C9.10641 7.29065 9.29995 6.65263 9.29995 5.99995C9.29995 5.12474 8.95227 4.28537 8.3334 3.6665C7.71453 3.04763 6.87517 2.69995 5.99995 2.69995ZM5.99995 8.35709C5.53375 8.35709 5.07802 8.21885 4.69039 7.95984C4.30276 7.70084 4.00064 7.3327 3.82224 6.90199C3.64383 6.47128 3.59715 5.99734 3.6881 5.54009C3.77905 5.08285 4.00355 4.66285 4.3332 4.3332C4.66285 4.00355 5.08286 3.77905 5.5401 3.6881C5.99734 3.59715 6.47128 3.64383 6.90199 3.82223C7.3327 4.00064 7.70084 4.30276 7.95984 4.69039C8.21885 5.07802 8.35709 5.53375 8.35709 5.99995C8.35709 6.6251 8.10875 7.22465 7.6667 7.6667C7.22465 8.10875 6.62511 8.35709 5.99995 8.35709Z" fill="#777574"/>
<path fill-rule="evenodd" clip-rule="evenodd" d="M6.02222 0.254883C6.2956 0.254883 6.51722 0.476502 6.51722 0.749883V1.79988C6.51722 2.07326 6.2956 2.29488 6.02222 2.29488C5.74884 2.29488 5.52722 2.07326 5.52722 1.79988V0.749883C5.52722 0.476502 5.74884 0.254883 6.02222 0.254883Z" fill="#777574"/>
<path fill-rule="evenodd" clip-rule="evenodd" d="M11.7672 5.99988C11.7672 6.27326 11.5456 6.49488 11.2722 6.49488L10.2222 6.49488C9.94883 6.49488 9.72721 6.27326 9.72721 5.99988C9.72721 5.7265 9.94883 5.50488 10.2222 5.50488L11.2722 5.50488C11.5456 5.50488 11.7672 5.7265 11.7672 5.99988Z" fill="#777574"/>
<path fill-rule="evenodd" clip-rule="evenodd" d="M10.0846 10.0624C9.89124 10.2557 9.57783 10.2557 9.38452 10.0624L8.64205 9.31996C8.44875 9.12665 8.44875 8.81323 8.64205 8.61992C8.83536 8.42661 9.14878 8.42661 9.34209 8.61992L10.0846 9.36238C10.2779 9.55569 10.2779 9.86911 10.0846 10.0624Z" fill="#777574"/>
<path fill-rule="evenodd" clip-rule="evenodd" d="M1.95992 10.0623C1.76661 9.86903 1.76661 9.55561 1.95992 9.3623L2.70238 8.61984C2.89569 8.42653 3.20911 8.42653 3.40242 8.61984C3.59573 8.81315 3.59573 9.12656 3.40242 9.31987L2.65995 10.0623C2.46664 10.2556 2.15323 10.2556 1.95992 10.0623Z" fill="#777574"/>
<path fill-rule="evenodd" clip-rule="evenodd" d="M6.02222 9.70508C6.2956 9.70508 6.51722 9.9267 6.51722 10.2001V11.2501C6.51722 11.5235 6.2956 11.7451 6.02222 11.7451C5.74884 11.7451 5.52722 11.5235 5.52722 11.2501V10.2001C5.52722 9.9267 5.74884 9.70508 6.02222 9.70508Z" fill="#777574"/>
<path fill-rule="evenodd" clip-rule="evenodd" d="M2.31714 5.99988C2.31714 6.27326 2.09552 6.49488 1.82214 6.49488L0.772139 6.49488C0.498758 6.49488 0.277139 6.27326 0.277139 5.99988C0.277139 5.7265 0.498758 5.50488 0.772139 5.50488L1.82214 5.50488C2.09552 5.50488 2.31714 5.7265 2.31714 5.99988Z" fill="#777574"/>
<path fill-rule="evenodd" clip-rule="evenodd" d="M3.4023 3.38029C3.20899 3.5736 2.89558 3.5736 2.70227 3.38029L1.9598 2.63783C1.76649 2.44452 1.76649 2.1311 1.9598 1.93779C2.15311 1.74448 2.46653 1.74448 2.65984 1.93779L3.4023 2.68026C3.59561 2.87357 3.59561 3.18698 3.4023 3.38029Z" fill="#777574"/>
<path fill-rule="evenodd" clip-rule="evenodd" d="M8.64205 3.38021C8.44874 3.1869 8.44874 2.87348 8.64205 2.68017L9.38451 1.93771C9.57782 1.7444 9.89124 1.7444 10.0845 1.93771C10.2779 2.13102 10.2779 2.44444 10.0845 2.63774L9.34208 3.38021C9.14877 3.57352 8.83536 3.57352 8.64205 3.38021Z" fill="#777574"/>
</svg>
