<svg width="16" height="16" viewBox="0 0 16 16" fill="none" xmlns="http://www.w3.org/2000/svg">
<g clip-path="url(#clip0_511_43590)">
<path d="M6.66666 6.66667C6.13623 6.66667 5.62752 6.87739 5.25245 7.25246C4.87738 7.62753 4.66667 8.13624 4.66667 8.66667C4.66667 9.1971 4.87738 9.70581 5.25245 10.0809C5.62752 10.456 6.13623 10.6667 6.66666 10.6667H9.33333C9.86376 10.6667 10.3725 10.456 10.7475 10.0809C11.1226 9.70581 11.3333 9.1971 11.3333 8.66667C11.3333 8.13624 11.1226 7.62753 10.7475 7.25246C10.3725 6.87739 9.86376 6.66667 9.33333 6.66667H6.66666ZM10 8.66667C10 8.84348 9.92976 9.01305 9.80473 9.13808C9.67971 9.2631 9.51014 9.33334 9.33333 9.33334H6.66666C6.48985 9.33334 6.32028 9.2631 6.19526 9.13808C6.07024 9.01305 6 8.84348 6 8.66667C6 8.48986 6.07024 8.32029 6.19526 8.19527C6.32028 8.07024 6.48985 8.00001 6.66666 8.00001H9.33333C9.51014 8.00001 9.67971 8.07024 9.80473 8.19527C9.92976 8.32029 10 8.48986 10 8.66667ZM11.3333 12.6667C11.3333 12.8435 11.2631 13.0131 11.1381 13.1381C11.013 13.2631 10.8435 13.3333 10.6667 13.3333H5.33333C5.15652 13.3333 4.98695 13.2631 4.86193 13.1381C4.7369 13.0131 4.66667 12.8435 4.66667 12.6667C4.66667 12.4899 4.7369 12.3203 4.86193 12.1953C4.98695 12.0702 5.15652 12 5.33333 12H10.6667C10.8435 12 11.013 12.0702 11.1381 12.1953C11.2631 12.3203 11.3333 12.4899 11.3333 12.6667ZM13.024 2.08068L11.9187 0.976676C11.6099 0.666177 11.2427 0.419985 10.8381 0.252342C10.4336 0.0846993 9.99987 -0.00106532 9.562 9.98748e-06H5.33333C4.4496 0.00106856 3.60237 0.352598 2.97748 0.977489C2.35259 1.60238 2.00106 2.44961 2 3.33334V12.6667C2.00106 13.5504 2.35259 14.3976 2.97748 15.0225C3.60237 15.6474 4.4496 15.9989 5.33333 16H10.6667C11.5504 15.9989 12.3976 15.6474 13.0225 15.0225C13.6474 14.3976 13.9989 13.5504 14 12.6667V4.43801C14.0012 4.00006 13.9156 3.56622 13.7481 3.16159C13.5806 2.75695 13.3345 2.38956 13.024 2.08068ZM12.0813 3.02334C12.1751 3.11829 12.2595 3.22211 12.3333 3.33334H10.6667V1.66668C10.7781 1.73969 10.8817 1.82391 10.976 1.91801L12.0813 3.02334ZM12.6667 12.6667C12.6667 13.1971 12.4559 13.7058 12.0809 14.0809C11.7058 14.456 11.1971 14.6667 10.6667 14.6667H5.33333C4.8029 14.6667 4.29419 14.456 3.91912 14.0809C3.54405 13.7058 3.33333 13.1971 3.33333 12.6667V3.33334C3.33333 2.80291 3.54405 2.2942 3.91912 1.91913C4.29419 1.54406 4.8029 1.33334 5.33333 1.33334H9.33333V3.33334C9.33333 3.68696 9.47381 4.0261 9.72385 4.27615C9.9739 4.5262 10.313 4.66667 10.6667 4.66667H12.6667V12.6667Z" fill="#232221"/>
</g>
<defs>
<clipPath id="clip0_511_43590">
<rect width="16" height="16" fill="white"/>
</clipPath>
</defs>
</svg>
