<svg width="12" height="12" viewBox="0 0 12 12" fill="none" xmlns="http://www.w3.org/2000/svg">
<path d="M5.29347 0.280568L0.27976 5.32182L0.21758 5.38982C0.0667939 5.57398 -0.0103737 5.80799 0.00112199 6.04624C0.0126177 6.28449 0.111953 6.50989 0.27976 6.67851L5.29347 11.7198L5.36165 11.7817C5.55093 11.9381 5.79279 12.0154 6.03716 11.9975C6.28152 11.9795 6.50967 11.8678 6.67438 11.6855C6.83908 11.5031 6.92774 11.264 6.92198 11.0178C6.91622 10.7715 6.81649 10.5369 6.64344 10.3625L2.30444 6.00017L6.64344 1.63781L6.70507 1.56926C6.86064 1.37895 6.93747 1.13579 6.91964 0.890115C6.90182 0.644437 6.79071 0.415058 6.60932 0.249464C6.42793 0.0838689 6.19015 -0.00525926 5.94521 0.000530857C5.70027 0.00632097 5.46692 0.106586 5.29347 0.280568Z" fill="#747B85"/>
<path d="M10.3712 0.280303L5.35752 5.32156L5.29534 5.38956C5.14455 5.57371 5.06738 5.80773 5.07888 6.04597C5.09038 6.28422 5.18971 6.50963 5.35752 6.67825L10.3712 11.7195L10.4394 11.7815C10.6287 11.9379 10.8706 12.0151 11.1149 11.9972C11.3593 11.9793 11.5874 11.8676 11.7521 11.6852C11.9168 11.5028 12.0055 11.2638 11.9997 11.0175C11.994 10.7712 11.8942 10.5366 11.7212 10.3623L7.3822 5.9999L11.7212 1.63754L11.7828 1.56899C11.9384 1.37869 12.0152 1.13553 11.9974 0.88985C11.9796 0.644172 11.8685 0.414793 11.6871 0.249198C11.5057 0.0836035 11.2679 -0.00552469 11.023 0.000265428C10.778 0.00605555 10.5447 0.10632 10.3712 0.280303Z" fill="#747B85"/>
</svg>
