<svg width="12" height="12" viewBox="0 0 12 12" fill="none" xmlns="http://www.w3.org/2000/svg">
<path d="M6.70653 0.280629L11.7202 5.32188L11.7824 5.38988C11.9332 5.57404 12.0104 5.80805 11.9989 6.0463C11.9874 6.28455 11.888 6.50996 11.7202 6.67857L6.70653 11.7198L6.63835 11.7818C6.44907 11.9382 6.20721 12.0154 5.96284 11.9975C5.71848 11.9796 5.49033 11.8679 5.32562 11.6855C5.16092 11.5032 5.07226 11.2641 5.07802 11.0178C5.08378 10.7716 5.18351 10.537 5.35656 10.3626L9.69556 6.00023L5.35656 1.63787L5.29493 1.56932C5.13936 1.37902 5.06253 1.13585 5.08036 0.890176C5.09818 0.644498 5.20929 0.415119 5.39068 0.249525C5.57207 0.0839299 5.80985 -0.00519822 6.05479 0.000591892C6.29973 0.00638201 6.53308 0.106647 6.70653 0.280629Z" fill="#747B85"/>
<path d="M1.62877 0.280364L6.64248 5.32162L6.70466 5.38962C6.85545 5.57377 6.93262 5.80779 6.92112 6.04604C6.90962 6.28428 6.81029 6.50969 6.64248 6.67831L1.62877 11.7196L1.56059 11.7815C1.37131 11.9379 1.12945 12.0152 0.885085 11.9973C0.640724 11.9793 0.412573 11.8676 0.247866 11.6853C0.0831575 11.5029 -0.00549412 11.2638 0.000264168 11.0176C0.00602436 10.7713 0.105752 10.5367 0.278804 10.3623L4.6178 5.99996L0.278804 1.6376L0.217169 1.56906C0.0616007 1.37875 -0.0152235 1.13559 0.00260162 0.889911C0.0204248 0.644233 0.131533 0.414854 0.312921 0.249259C0.494309 0.0836645 0.732089 -0.00546365 0.977032 0.000326464C1.22198 0.00611658 1.45533 0.106381 1.62877 0.280364Z" fill="#747B85"/>
</svg>
