<svg width="16" height="16" viewBox="0 0 16 16" fill="none" xmlns="http://www.w3.org/2000/svg">
<path d="M1.6002 7.20443C1.6002 6.46857 1.74514 5.73992 2.02674 5.06008C2.30834 4.38024 2.72109 3.76252 3.24141 3.24219C3.76174 2.72187 4.37946 2.30912 5.0593 2.02752C5.73914 1.74592 6.46779 1.60098 7.20365 1.60098C7.9395 1.60098 8.66815 1.74592 9.34799 2.02752C10.0278 2.30912 10.6456 2.72187 11.1659 3.24219C11.6862 3.76252 12.099 4.38024 12.3806 5.06008C12.6622 5.73992 12.8071 6.46857 12.8071 7.20443C12.8071 8.69055 12.2167 10.1158 11.1659 11.1667C10.115 12.2175 8.68977 12.8079 7.20365 12.8079C5.71752 12.8079 4.29226 12.2175 3.24141 11.1667C2.19057 10.1158 1.6002 8.69055 1.6002 7.20443ZM7.20365 2.69638e-08C6.05284 0.000124636 4.91881 0.27593 3.89648 0.804329C2.87415 1.33273 1.99328 2.09834 1.32761 3.03708C0.661933 3.97582 0.230825 5.06037 0.0703713 6.19994C-0.090082 7.3395 0.0247894 8.50093 0.405369 9.58698C0.785949 10.673 1.42116 11.6521 2.25783 12.4423C3.09451 13.2324 4.10829 13.8106 5.21432 14.1285C6.32035 14.4464 7.48644 14.4947 8.61497 14.2694C9.74351 14.0441 10.8016 13.5517 11.7008 12.8335L14.6426 15.7753C14.7936 15.9211 14.9958 16.0018 15.2057 16C15.4156 15.9981 15.6163 15.914 15.7648 15.7655C15.9132 15.6171 15.9974 15.4163 15.9992 15.2065C16.001 14.9966 15.9203 14.7944 15.7745 14.6434L12.8327 11.7016C13.6796 10.6416 14.21 9.36406 14.3628 8.01594C14.5157 6.66782 14.2847 5.30395 13.6966 4.0813C13.1084 2.85866 12.187 1.82695 11.0383 1.10491C9.88962 0.382882 8.5604 -0.000117334 7.20365 2.69638e-08ZM8.00414 4.80295C8.00414 4.59065 7.9198 4.38704 7.76968 4.23692C7.61956 4.0868 7.41595 4.00246 7.20365 4.00246C6.99134 4.00246 6.78774 4.0868 6.63761 4.23692C6.48749 4.38704 6.40315 4.59065 6.40315 4.80295V6.40393H4.80217C4.58987 6.40393 4.38626 6.48827 4.23614 6.63839C4.08602 6.78851 4.00168 6.99212 4.00168 7.20443C4.00168 7.41673 4.08602 7.62034 4.23614 7.77046C4.38626 7.92058 4.58987 8.00492 4.80217 8.00492H6.40315V9.6059C6.40315 9.8182 6.48749 10.0218 6.63761 10.1719C6.78774 10.3221 6.99134 10.4064 7.20365 10.4064C7.41595 10.4064 7.61956 10.3221 7.76968 10.1719C7.9198 10.0218 8.00414 9.8182 8.00414 9.6059V8.00492H9.60512C9.81743 8.00492 10.021 7.92058 10.1712 7.77046C10.3213 7.62034 10.4056 7.41673 10.4056 7.20443C10.4056 6.99212 10.3213 6.78851 10.1712 6.63839C10.021 6.48827 9.81743 6.40393 9.60512 6.40393H8.00414V4.80295Z" fill="#747B85"/>
</svg>
