<svg width="13" height="13" viewBox="0 0 13 13" fill="none" xmlns="http://www.w3.org/2000/svg">
<path fill-rule="evenodd" clip-rule="evenodd" d="M5.25 8.73C7.17195 8.73 8.73 7.17195 8.73 5.25C8.73 3.32805 7.17195 1.77 5.25 1.77C3.32805 1.77 1.77 3.32805 1.77 5.25C1.77 7.17195 3.32805 8.73 5.25 8.73ZM5.25 9.75C6.31852 9.75 7.30006 9.37758 8.0719 8.75547L11.318 12.0171C11.4946 12.1945 11.7942 12.1812 11.9873 11.9872C12.1803 11.7932 12.1936 11.4921 12.017 11.3147L8.77073 8.05286C9.38367 7.28395 9.75 6.30975 9.75 5.25C9.75 2.76472 7.73528 0.75 5.25 0.75C2.76472 0.75 0.75 2.76472 0.75 5.25C0.75 7.73528 2.76472 9.75 5.25 9.75ZM5.74748 3.30246C5.74748 3.02907 5.52586 2.80746 5.25248 2.80746C4.9791 2.80746 4.75748 3.02907 4.75748 3.30246V4.75746H3.30248C3.0291 4.75746 2.80748 4.97907 2.80748 5.25246C2.80748 5.52584 3.0291 5.74746 3.30248 5.74746H4.75748V7.20246C4.75748 7.47584 4.9791 7.69746 5.25248 7.69746C5.52586 7.69746 5.74748 7.47584 5.74748 7.20246V5.74746H7.20248C7.47586 5.74746 7.69748 5.52584 7.69748 5.25246C7.69748 4.97907 7.47586 4.75746 7.20248 4.75746H5.74748V3.30246Z" fill="#777574"/>
</svg>
