<svg width="2" height="12" viewBox="0 0 2 12" fill="none" xmlns="http://www.w3.org/2000/svg">
<path d="M1 2C1.55229 2 2 1.55228 2 1C2 0.447715 1.55229 0 1 0C0.447716 0 0 0.447715 0 1C0 1.55228 0.447716 2 1 2Z" fill="#4F4C4A"/>
<path d="M1 7C1.55229 7 2 6.55228 2 6C2 5.44771 1.55229 5 1 5C0.447716 5 0 5.44771 0 6C0 6.55228 0.447716 7 1 7Z" fill="#4F4C4A"/>
<path d="M1 12C1.55229 12 2 11.5523 2 11C2 10.4477 1.55229 10 1 10C0.447716 10 0 10.4477 0 11C0 11.5523 0.447716 12 1 12Z" fill="#4F4C4A"/>
</svg>
