<svg width="16" height="16" viewBox="0 0 16 16" fill="none" xmlns="http://www.w3.org/2000/svg">
<rect x="0.5" y="0.5" width="15" height="15" rx="7.5" fill="white"/>
<path d="M8.00008 5.6665C7.53859 5.6665 7.08747 5.80335 6.70375 6.05974C6.32004 6.31613 6.02097 6.68055 5.84436 7.10691C5.66776 7.53327 5.62155 8.00243 5.71158 8.45505C5.80162 8.90767 6.02384 9.32343 6.35017 9.64975C6.67649 9.97608 7.09225 10.1983 7.54487 10.2883C7.99749 10.3784 8.46665 10.3322 8.89301 10.1556C9.31937 9.97895 9.68379 9.67988 9.94018 9.29617C10.1966 8.91245 10.3334 8.46133 10.3334 7.99984C10.3334 7.381 10.0876 6.78751 9.65 6.34992C9.21241 5.91234 8.61892 5.6665 8.00008 5.6665ZM8.00008 9.6665C7.67045 9.6665 7.34821 9.56876 7.07413 9.38562C6.80005 9.20249 6.58643 8.94219 6.46028 8.63764C6.33414 8.3331 6.30113 7.99799 6.36544 7.67469C6.42975 7.35139 6.58848 7.05441 6.82157 6.82133C7.05466 6.58824 7.35163 6.4295 7.67493 6.3652C7.99823 6.30089 8.33334 6.33389 8.63789 6.46004C8.94243 6.58618 9.20273 6.79981 9.38586 7.07389C9.569 7.34797 9.66675 7.6702 9.66675 7.99984C9.66675 8.44187 9.49115 8.86579 9.17859 9.17835C8.86603 9.49091 8.44211 9.66651 8.00008 9.6665Z" fill="#232221"/>
<rect x="0.5" y="0.5" width="15" height="15" rx="7.5" stroke="#C3C3BF"/>
</svg>
