<svg width="22" height="22" viewBox="0 0 22 22" fill="none" xmlns="http://www.w3.org/2000/svg">
<path d="M11 21.5C12.3789 21.5 13.7443 21.2284 15.0182 20.7007C16.2921 20.1731 17.4496 19.3996 18.4246 18.4246C19.3996 17.4496 20.1731 16.2921 20.7007 15.0182C21.2284 13.7443 21.5 12.3789 21.5 11C21.5 9.62112 21.2284 8.25574 20.7007 6.98182C20.1731 5.70791 19.3996 4.55039 18.4246 3.57538C17.4496 2.60036 16.2921 1.82694 15.0182 1.29926C13.7443 0.77159 12.3789 0.5 11 0.5C8.21523 0.5 5.54451 1.60625 3.57538 3.57538C1.60625 5.54451 0.5 8.21523 0.5 11C0.5 13.7848 1.60625 16.4555 3.57538 18.4246C5.54451 20.3938 8.21523 21.5 11 21.5ZM11 2.25C11.6545 2.25 12.5312 2.873 13.2977 4.5565C13.4622 4.9205 13.6145 5.3195 13.7528 5.75H8.24725C8.37531 5.34356 8.52724 4.94504 8.70225 4.5565C9.46875 2.873 10.3472 2.25 11 2.25ZM7.10975 3.832C6.84725 4.413 6.6145 5.057 6.422 5.75H4C4.92316 4.52048 6.15301 3.55495 7.5665 2.95C7.39903 3.23587 7.24658 3.53027 7.10975 3.832ZM6.03525 7.5C5.84306 8.65671 5.74765 9.82743 5.75 11C5.75 12.2233 5.84975 13.4028 6.03525 14.5H2.978C2.49623 13.3961 2.24836 12.2044 2.25 11C2.25 9.75575 2.509 8.571 2.978 7.5H6.03525ZM6.422 16.25C6.6145 16.943 6.8455 17.587 7.10975 18.168C7.248 18.4725 7.40025 18.7683 7.56475 19.05C6.15189 18.4448 4.92267 17.4793 4 16.25H6.422ZM8.24725 16.25H13.7528C13.6247 16.6564 13.4727 17.055 13.2977 17.4435C12.5312 19.127 11.6528 19.75 11 19.75C10.3455 19.75 9.46875 19.127 8.70225 17.4435C8.52726 17.055 8.37533 16.6564 8.24725 16.25ZM14.1868 14.5H7.815C7.60288 13.3455 7.49744 12.1739 7.5 11C7.5 9.7505 7.612 8.5675 7.81325 7.5H14.185C14.3862 8.5675 14.4982 9.7505 14.4982 11C14.4982 12.2495 14.3862 13.4325 14.185 14.5H14.1868ZM15.578 16.25H18C17.0768 17.4795 15.847 18.445 14.4335 19.05C14.5997 18.7683 14.752 18.4725 14.8885 18.168C15.1545 17.587 15.3855 16.943 15.578 16.25ZM19.022 14.5H15.9648C16.157 13.3433 16.2524 12.1726 16.25 11C16.25 9.77675 16.1502 8.599 15.9648 7.5H19.022C19.491 8.571 19.75 9.75575 19.75 11C19.75 12.2443 19.491 13.429 19.022 14.5ZM14.4335 2.95C15.847 3.55502 17.0768 4.52054 18 5.75H15.578C15.3986 5.09387 15.1687 4.45261 14.8902 3.832C14.754 3.53031 14.6021 3.23591 14.4353 2.95H14.4335Z" fill="#2A63B5"/>
</svg>
